<mxfile host="65bd71144e">
    <diagram id="tUtbQugHGxXLxsZHDxZO" name="Page-1">
        <mxGraphModel dx="763" dy="675" grid="1" gridSize="10" guides="1" tooltips="1" connect="1" arrows="1" fold="1" page="1" pageScale="1" pageWidth="827" pageHeight="1169" math="0" shadow="0">
            <root>
                <mxCell id="0"/>
                <mxCell id="1" parent="0"/>
                <mxCell id="2" value="" style="shape=image;verticalLabelPosition=bottom;labelBackgroundColor=#ffffff;verticalAlign=top;aspect=fixed;imageAspect=0;image=data:image/png,iVBORw0KGgoAAAANSUhEUgAAAnwAAABOCAYAAAC6wMvZAAAMTGlDQ1BJQ0MgUHJvZmlsZQAASImVlwdcU1cXwO8bmSSsQARkhL1EkRlARggrgoBMQVRCEkgYMSYEETelVMG6RRTUilZFFK0DkDpR6ywK7jqKWlQqtVjFhcp3M0Brv/H7Tn73vX/OPffcc07ufXkXAL1avkyWj+oDUCAtlCdEhrImpaWzSI8AAj804A5s+AKFjBMfHwOgDN3/Lq+uQ1soV9xUvv7Z/1/FQChSCABA4iFnCRWCAsgHAMBLBTJ5IQBENtTbziyUqTgDspEcBghZpuIcDZepOEvD1WqbpAQu5F0AkGl8vjwHAN0WqGcVCXKgH92bkN2lQokUAD0y5CCBmC+EHAV5VEHBdBVDO+CU9ZmfnL/5zBr2yefnDLMmF7WQwyQKWT5/1v9Zjv8tBfnKoTkcYKOJ5VEJqpxh3W7mTY9WMQ1yrzQrNg6yIeQ3EqHaHjJKFSujkjX2qLlAwYU1A0zI7kJ+WDRkc8gR0vzYGK0+K1sSwYMMVwhaLCnkJWnHLhIpwhO1Pmvl0xPihjhbzuVoxzby5ep5VfanlHnJHK3/m2IRb8j/yxJxUipkKgAYtUiSEgtZF7KRIi8xWmOD2ZSIubFDNnJlgip+O8hskTQyVOMfy8iWRyRo7WUFiqF8sXKxhBer5epCcVKUpj7YTgFfHb8J5CaRlJM85EekmBQzlItQFBauyR1rF0mTtfli92SFoQnasX2y/HitPU4W5Ueq9DaQzRRFidqx+LhCuCA1/vEYWWF8kiZOPDOXPz5eEw9eBGIAF4QBFlDClgWmg1wgae9t7oXfND0RgA/kIAeIgJtWMzQiVd0jhddEUAL+gCQCiuFxoepeESiC+g/DWs3VDWSre4vUI/LAI8gFIBrkw+9K9Sjp8Gwp4DeokfxjdgGMNR82Vd8/dRyoidFqlEN+WXpDlsRwYhgxihhBdMbN8CA8AI+B1xDYPHA27jcU7Sd7wiNCB+EB4Rqhi3BrmqRU/kUsE0AX9B+hzTjr84xxB+jTGw/FA6F36Bln4mbADfeC83DwYDizN9RytXGrcmf9mzyHM/is5lo7ijsFpYyghFCcvhyp66LrPexFVdHP66OJNWu4qtzhni/n535WZyG8R39piS3C9mNnsBPYOeww1gxY2DGsBbuIHVHx8Br6Tb2GhmZLUMeTB/1I/jEfXzunqpIK9wb3Hvf32j5QKCpWPR8Bd7psllySIy5kceCTX8TiSQWjR7E83D08AFD9j2geUy+Y6v8HhHn+k650CwCBQYODg4c/6aK7AdjfB7f53U86J7h3dTsBOLtaoJQXaXS46kKATwM9uKNMgSWwBU4wIw/gAwJACAgH40EcSAJpYCqssxiuZzmYCeaAhaAcVILlYA1YDzaBLWAH2A32gWZwGJwAP4EL4DK4Bm7D9dMNnoI+8AoMIAhCQugIAzFFrBB7xBXxQNhIEBKOxCAJSBqSieQgUkSJzEG+QiqRlch6ZDNSj/yAHEJOIOeQDuQWch/pQf5C3qEYSkONUAvUAR2DslEOGo0moVPQHHQGWoKWoUvRarQO3YU2oSfQC+g1tAt9ivZjANPBmJg15oaxMS4Wh6Vj2Zgcm4dVYFVYHdaItcJf+grWhfVib3EizsBZuBtcw1F4Mi7AZ+Dz8CX4enwH3oSfwq/g9/E+/COBTjAnuBL8CTzCJEIOYSahnFBF2EY4SDgNd1M34RWRSGQSHYm+cDemEXOJs4lLiBuIe4jHiR3Eh8R+EolkSnIlBZLiSHxSIamctI60i3SM1EnqJr0h65CtyB7kCHI6WUouJVeRd5KPkjvJj8kDFH2KPcWfEkcRUmZRllG2UloplyjdlAGqAdWRGkhNouZSF1KrqY3U09Q71Bc6Ojo2On46E3UkOgt0qnX26pzVua/zlmZIc6FxaRk0JW0pbTvtOO0W7QWdTnegh9DT6YX0pfR6+kn6PfobXYbuaF2erlB3vm6NbpNup+4zPYqevR5Hb6peiV6V3n69S3q9+hR9B32uPl9/nn6N/iH9G/r9BgyDsQZxBgUGSwx2GpwzeGJIMnQwDDcUGpYZbjE8afiQgTFsGVyGgPEVYyvjNKPbiGjkaMQzyjWqNNpt1G7UZ2xo7GWcYlxsXGN8xLiLiTEdmDxmPnMZcx/zOvPdCIsRnBGiEYtHNI7oHPHaZKRJiInIpMJkj8k1k3emLNNw0zzTFabNpnfNcDMXs4lmM802mp026x1pNDJgpGBkxch9I38xR81dzBPMZ5tvMb9o3m9haRFpIbNYZ3HSoteSaRlimWu52vKoZY8VwyrISmK12uqY1e8sYxaHlc+qZp1i9VmbW0dZK603W7dbD9g42iTblNrssblrS7Vl22bbrrZts+2zs7KbYDfHrsHuF3uKPdtebL/W/oz9awdHh1SHbxyaHZ44mjjyHEscGxzvONGdgp1mONU5XXUmOrOd85w3OF92QV28XcQuNS6XXFFXH1eJ6wbXjlGEUX6jpKPqRt1wo7lx3IrcGtzuj2aOjhldOrp59LMxdmPSx6wYc2bMR3dv93z3re63xxqOHT+2dGzr2L88XDwEHjUeVz3pnhGe8z1bPJ97uXqJvDZ63fRmeE/w/sa7zfuDj6+P3KfRp8fXzjfTt9b3BtuIHc9ewj7rR/AL9Zvvd9jvrb+Pf6H/Pv8/A9wC8gJ2BjwZ5zhONG7ruIeBNoH8wM2BXUGsoMyg74K6gq2D+cF1wQ9CbEOEIdtCHnOcObmcXZxnoe6h8tCDoa+5/ty53ONhWFhkWEVYe7hheHL4+vB7ETYRORENEX2R3pGzI49HEaKio1ZE3eBZ8AS8el7feN/xc8efiqZFJ0avj34Q4xIjj2mdgE4YP2HVhDux9rHS2OY4EMeLWxV3N94xfkb8jxOJE+Mn1kx8lDA2YU7CmURG4rTEnYmvkkKTliXdTnZKVia3peilZKTUp7xODUtdmdo1acykuZMupJmlSdJa0knpKenb0vsnh09eM7k7wzujPOP6FMcpxVPOTTWbmj/1yDS9afxp+zMJmamZOzPf8+P4dfz+LF5WbVafgCtYK3gqDBGuFvaIAkUrRY+zA7NXZj/JCcxZldMjDhZXiXslXMl6yfPcqNxNua/z4vK25w3mp+bvKSAXZBYckhpK86SnpltOL57eIXOVlcu6ZvjPWDOjTx4t36ZAFFMULYVG8IX9otJJ+bXyflFQUU3Rm5kpM/cXGxRLiy/Ocpm1eNbjkoiS72fjswWz2+ZYz1k45/5cztzN85B5WfPa5tvOL5vfvSBywY6F1IV5C38udS9dWfryq9SvWsssyhaUPfw68uuGct1yefmNbwK+2bQIXyRZ1L7Yc/G6xR8rhBXnK90rqyrfLxEsOf/t2G+rvx1cmr20fZnPso3Liculy6+vCF6xY6XBypKVD1dNWNW0mrW6YvXLNdPWnKvyqtq0lrpWubarOqa6ZZ3duuXr3q8Xr79WE1qzp9a8dnHt6w3CDZ0bQzY2brLYVLnp3XeS725ujtzcVOdQV7WFuKVoy6OtKVvPfM/+vn6b2bbKbR+2S7d37UjYcaret75+p/nOZQ1og7KhZ1fGrsu7w3a3NLo1bt7D3FO5F+xV7v39h8wfru+L3te2n72/8YD9gdqDjIMVTUjTrKa+ZnFzV0taS8eh8YfaWgNaD/44+sfth60P1xwxPrLsKPVo2dHBYyXH+o/LjveeyDnxsG1a2+2Tk05ePTXxVPvp6NNnf4r46eQZzpljZwPPHj7nf+7Qefb55gs+F5ouel88+LP3zwfbfdqbLvlearnsd7m1Y1zH0c7gzhNXwq78dJV39cK12Gsd15Ov37yRcaPrpvDmk1v5t57/UvTLwO0Fdwh3Ku7q3626Z36v7lfnX/d0+XQduR92/+KDxAe3HwoePv1N8dv77rJH9EdVj60e1z/xeHK4J6Ln8u+Tf+9+Kns60Fv+h8Eftc+cnh34M+TPi32T+rqfy58P/rXkhemL7S+9Xrb1x/ffe1XwauB1xRvTNzvest+eeZf67vHAzPek99UfnD+0foz+eGewYHBQxpfz1a8CGGxodjYAf20HgJ4GAOMyfH+YrDnnqQXRnE3VBP4Ta86CavEBoBHeVK/r3OMA7IXNATY6bKpX9aQQgHp6DjetKLI9PTS+aPDEQ3gzOPjCAgBSKwAf5IODAxsGBz9shcHeAuD4DM35UiVEeDb4zktFncziBeAL+ReNwIDwBJf5WwAAAIplWElmTU0AKgAAAAgABAEaAAUAAAABAAAAPgEbAAUAAAABAAAARgEoAAMAAAABAAIAAIdpAAQAAAABAAAATgAAAAAAAACQAAAAAQAAAJAAAAABAAOShgAHAAAAEgAAAHigAgAEAAAAAQAAAnygAwAEAAAAAQAAAE4AAAAAQVNDSUkAAABTY3JlZW5zaG90sg52ogAAAAlwSFlzAAAWJQAAFiUBSVIk8AAAAdVpVFh0WE1MOmNvbS5hZG9iZS54bXAAAAAAADx4OnhtcG1ldGEgeG1sbnM6eD0iYWRvYmU6bnM6bWV0YS8iIHg6eG1wdGs9IlhNUCBDb3JlIDUuNC4wIj4KICAgPHJkZjpSREYgeG1sbnM6cmRmPSJodHRwOi8vd3d3LnczLm9yZy8xOTk5LzAyLzIyLXJkZi1zeW50YXgtbnMjIj4KICAgICAgPHJkZjpEZXNjcmlwdGlvbiByZGY6YWJvdXQ9IiIKICAgICAgICAgICAgeG1sbnM6ZXhpZj0iaHR0cDovL25zLmFkb2JlLmNvbS9leGlmLzEuMC8iPgogICAgICAgICA8ZXhpZjpQaXhlbFhEaW1lbnNpb24+NjM2PC9leGlmOlBpeGVsWERpbWVuc2lvbj4KICAgICAgICAgPGV4aWY6VXNlckNvbW1lbnQ+U2NyZWVuc2hvdDwvZXhpZjpVc2VyQ29tbWVudD4KICAgICAgICAgPGV4aWY6UGl4ZWxZRGltZW5zaW9uPjc4PC9leGlmOlBpeGVsWURpbWVuc2lvbj4KICAgICAgPC9yZGY6RGVzY3JpcHRpb24+CiAgIDwvcmRmOlJERj4KPC94OnhtcG1ldGE+Cjf/hvUAAAAcaURPVAAAAAIAAAAAAAAAJwAAACgAAAAnAAAAJwAAGJY7OkvyAAAYYklEQVR4AexdB1wUx/f/WhAFFbti771iC4q99xp70BhbbDGxxt5ii2I0sZcYjZrEgiXG31+xl2g0Ym8BOxYUCwqKBf/zFndud7k7DuVCON58PjDvzbyZnfnO3u1335RLkiZ91rfgwAgwAowAI8AIMAKMACPgsAgkYcLnsGPLHWMEGAFGgBFgBBgBRkBBgAkf3wiMACPACDACjAAjwAg4OAJM+Bx8gLl7jAAjwAgwAowAI8AIMOHje4ARYAQYAUaAEWAEGAEHR4AJn4MPMHePEWAEGAFGgBFgBBgBJnx8DzACjAAjwAgwAowAI+DgCDDhc/AB5u4xAowAI8AIMAKMACPAhI/vAUaAEWAEGAFGgBFgBBwcASZ8Dj7A3D1GgBFgBBgBRoARYASY8PE9wAgwAowAI8AIMAKMgIMjwITPwQeYu8cIMAKMACPACDACjAATPr4HGAFGgBFgBBgBRoARcHAEmPA5+ABz9xgBRoARYAQYAUaAEWDCx/cAI8AIMAKMACPACDACDo4AEz4HH2DuHiPACDACjAAjwAgwAkz4+B5gBBgBRoARYAQYAUbAwRFgwufgA8zdYwQYAUaAEWAEGAFGgAkf3wOMACPACDACjAAjwAg4OAJM+Bx8gLl7jAAjwAgwAowAI8AIMOHje4ARYAQYAUaAEWAEGAEHR4AJn4MPcGLoXtmCSVE4V1Klq+evReLs1cjE0G3uIyPACDACjMC/iEDDSsmR1jXqglsPvcbzl//ixePgUkz44gBEriL+EHBNmQRHF7jAKXlUGxZtfQWf3xLYpzD+4OMrMwKMACPACNiAQDLhU/h7iStSpYgyXrf3NUYvi7Ch5H/HhAnff2csuCXvgcDUXs5oXS2K7UW8Air2DgPF1kKB0pXQpNuX0uR52DMsGdNT6iREt3kqbHrpbFhJOAjUbPMpSletLxt85dzf+H3ZTKmTULNNd2FTT6ZdOStsluttZCYLjAAjkOgQ6NHECUM7RDG+yLdAna/CcfuBEBJIYMKXQAaKmxkdgZyZk2CXj4vMmOf7CnM3xuzdq92uJ9p9MUmWexsZic+rZZc6CXXa98LHAyfKtMg3r9G3ek6pf6jQf9YauGXIrFQT/iwUswe0+dAqubwVBL78fgOKeFSVFvdvXcWY9p5SJ8Foc+9mIMZ1MJXRGbOS6BDIV6kBSjf+zGK/Xz5/ioc3LiHk+gUEB5xEaPBNi7ackTARIC/f8UUucBEzSxSOXXyDLt+8SDCdYcKXYIaKG2pE4OdRKVGxaDIlmbx65XuF4dVro1V0Pb4JX4U6LdBj4iLZsGsXTmJaj4ZSZyHuETCSOSZ8cY+xo9fYcOhSFKzS1OZu3vvHH7vnfaUQQJsLJRDDDLmLoP6gebK1h36aiJun9kvdkYWuDZ0wsvO7eV3R0fYTnuNkQMJYN86Ez5HvTAfuW+Z0SXDwe5N3b7XfK0z8KWbvHkES34RvyobjyJDN5C2c1rMRrp33d+DRiv+uMeGL/zFI6C2ILeFT+3tk9TQcX/+dqjpEnKOEJ1pN9pV92TN/CM7t/FnqjiwkEz6GM8tcQTGFo+ffwHtqwvDyMeGLGjP+n8AQGOOdAl3qOclW1xscjhvBtq2liE/CR9OKRD7UwNOGKhL2jZnw2RffxFC7kfCFhdzB4ztXla4nTZYcqTNlh2uGbCDZGNYNawTy+DlKSMyEj8ZwwZcpUdvjHeMTeqXPw/HkmW3Pn/i8B5jwxSf6fO33QiCJWD7hv9S0WypILJqt/WW4zXXFJ+Ebs3IPchQoJts6b2gXnDnsJ3UW7IMAEz774JqYajUSPr+5A3Fxz286CJIkTYbyrQegcqdhSJJELPh6F148fYSl3qbPvZqeUOPETvgqiaVEq8SSIjUsFqdDzEoAp0Mw4VNHjOMEg0CDiskxd6CzbO/sdS+xcEsMW3OldfxN6WbPXxRjV+2VLXkScg/Dm5eROgv2Q4AJn/2wTSw120L4VCxK1P8EtT7/VlWVeFm3knj+5IEuLaEqiZ3w0bidWOICOhaMQmjYW1TsY7vTQSkUD//+FcKXPEVKFPBsCrpJ0mTJpbi+kyV3wqNbAQgOPIm7l0/gzoVjeBkeGiMExep0kG9OD66dE7uhTiGtqDNf5UbIW74u3NzzIeTaedw6cxDXju/Ek7vX4qXOGC8aS4OcmfOhSJ7SSqmw56E4cm6PxRqcBLbVyzaW+ZdvnMHN4CtStyR4lW6AKqXqgq6VNUMOJBVvqA9D7+P+47s4f+0E/nd0naJbKm8uPUt6d3gU9kKpAhVRLE9ZpHFxw5XbF3E68C8cv7gfl0TbYht8+jmjyUemaZMGQ5/j2l3bF83Gl4dvyILNKFi6suzuqqlf4dDva6RuFHIULI5CZaLsw0If49hO05oZo61TCmdUbdZJJgeePoab/5yVuiXBs3F7lKnWEBndc4ldw1kgPlwIf/oEoQ+DcV1sJtmzfhke3guyVNxsOh1pU7xSTeQvWQHueQvh7du3uHPtMgJOHcXfu7aAprFtDe55C6O0V9RxKq8iXmD3uqVK0SRJk6Ju+97wqNUU6TK7I7lTCoSGBCPoygX4LpiMR8F3dJdIzIQvX6WGSC7uDwp3LvyFZ2Iq0lLIUrAM3LLlVbIjX79G4JFtlkxleso06VGmaQ+kz1kEabPmhotbJkSEPUHYo3t4KnaqBv65DTdO7YO4EWSZmASaFnUvWhHuxSojW5HyyJCrMF48fSymRU/g9vmjuP63H14+fxZTNTKf6kqfs5Cih967oTwfSHFK6Yqyzfsge/HKynPkLd7iyZ1rygaE09uWIfKN6UUyNoSP6u656hKcU7uRqIRtU7vh6l//U1WzcQqXtMhdtobS9yyFyoGwffbgttJvGrubpw7o2mS2EpEYl2Puki4z8laop7sUjQfhpobLB3xx6/QBVdXFQef+FJhGTX3rMgxKCpc0yFGyStSYF/IQXCGneH5fx91Lx8WYH8GNk3tjdQ8V+KiJxP/u5b+VHdR0yTSZcwovbH9kzFsCqTO642VYqJiav4LL+31tut/VZi8ekhI1ypimdb0GhItnpe33uFoPxfXqN0DatGm1SbgXfA8H98ftRhi7Ej768qg7YC5oR09MgY692OHzOQIOb7Vq2t/3rswPOLQFQecOo0avaTLNKBz8cTxOblloTNbp9qhTd4E4UHq3+BreDb+QNbUaWQ7Bj8x/cRPJ8p3iL21/8VuI7zeMl7pRqFi0OkZ6f4cs6fVHkxjtSA8IOo+uk2uby9KlJRHEYWDbiWhXu6cu3ajsOr4ZE37shzeRNmyvfVf4wFwX0daoN6s3b4Di3cKM1VrV44Pwpc/ijikbTwg+FdXu8GdP8FUD65+LT772QdWmJhJHx4jQ7lJzIXPOfJj0658y6+j/rcePE/tL3SiUr90MnYbMgKtbemNWND3kzk2MalsxWroxIbVbBgyev0mQvMLGLKkT+dv+03fYsmS6TLMmtOg1Ao26DpIm3w/uiIjn4Rjo8wtSpEwl07UCXcN3/iTsWDNfJidmwtd3/S25ruymIF6bx7eXuBiFFuN/Ra4yNZTkt28jMa+15e8Eemmv1XcWitRsK1/CjfWpuq3f72SfMU8xtJywDqkEcbQUXr0Iw5aJnQSBPWrJRJfeYvxvol/VlTS1XyXqdUGN3tMkNroCQnnzKgJrB9XG49tRLyixJXwfz9iOrIK0qeH4+jk4snqqqkaLc5etiSYjf0IyJ+doeWpC+ONgbBzZUiEoapq5OC7HnI6jafL1T+YuY1Pa4ZWTcMLXtKPXXKFCXi1Rb9APFseCyjwKCsSmMa2VFwlzdRjTeq8NVAg9pdNROWsH1ULdgXNRtFY7o6nUiVyv6OkhdWvCZ42dMKyjabfuuB8j8Mtu259j2rr99kYndiEPHqB929Zasw+W7Ur4SjbshpriAxWbcH7nauxeMMQik9eSM3rDS5EqdYzVn9+1Frt/MB20ayxgjzqN1/hQvVfzEejayPTgazOqAu4+vGW22tgQvuL5PLBo6O+KN89sZYbEl+JLsNbAPIZUvZotQ058/+UGZM9k3U4t9eDJXXSf2gAhT+6pSRZjOv/IX7jS1fBPUCSajniuqjbF8UH4+s5YqTv4d/PiaQrxsdbgLiNmwatZZ2kyvpMX7l4PkLpWiA3hI+/bAJ+1knxq6zEnv3n9Cv1q5DKXJdPoqJluY34QnjYnmWZNuHHpNKZ0j/LcWbMzEr4/VsxGI+8vQB4+a+GvHRuxfEJfacKEL8ojTkdnbB5v+YEXG8LXevImZC/xkcQ4JuHwqsk4sfEHq2bl2wzER51HxEgg1Ur+/HkK/t4wV1UtxkbCd2DZGFTv8Y1FezXDd3Qr4VSIepGKLeFrP2snMucvpVaFv36dib9+mSl1rVCl61h4tDTdr9o8o0yE1e+7Abi037T5y2ijJ3wfNub2JHxEbhsOWaR4JI19MKfTd9HWiR2lh9acjZpmJHxE5vKUr6Nmm43VlwGzmYbEIuLnPLdMMb107vF/gz4+77db1yEJ36OgADwWfyHicMrnoSGK+z932VpIn6OADkprXjktOdMWCg48jaCzh8TURUrk8agt6taTja2TO4tpgF3aIlK2R52y8jgS7EX4Nk31R+Z07rKVzyPCsOPYRgTeOi+8bm+Q170w8mcvirKFPkKypMlhC+HbPO0kMrllk3WScCrgCM5cOY6Ily9QNHdpeIqpY5oyVsPJf46gn09LVbUYe5VKhmXDUsr89/l5GyPhM3eosvHgZVtIj2yUQUiVOi18tl+UJOXVywgMrJMPdOCztWAvwjdLtMU1bTp56devXuLsn7twK+CcmC56A1prmDV3AeQsUFxpc0x9z+SeG5PWHdURSOrb1fMncPPyWfFS5oJ8xcohm5je1YadwgO3Yd5EbVI02Uj4qF4t2SNv36Pg28oLYjrhRU3pEvUCGBPhu3dDHKrcsaruekZSePfaPxjfuZrOJiEqcfnwV/tPS3QaDYuaXlfTaBcqTVnSVK5r+mzCUyfuo8LllalSsomJ8BXyaoEGg03nU1IZWuZz7bgfaPkOfafnLldL1kf5FMhzQx4ca0FL+MiOPvPqblp6yIc/ChaevCtwdk2LtGJKW3UkfAjh67UmQNZD17Q0pZtNYNR2un7qPELMANw4uQdPBUnJIKaiyTup9fxR+5d6F7e4DCouxzxl6nTw6j5R4kV9oSndTPlKkqiEB1fP4uHNy6qqi8/uWInb547o0lSl/lcLULhaK1VVYppevSVeTELv30KmPMWRt2J9HY7k6FkmNsDQ95K1oCV82vGmMqTTcgM6HJumjtNkzgXyWMeG8FE9F1a6iucYSRAzbm9RbWB4lBLL/w5B+OgDTC7UC8LDduy32RZdsUVqtFXcuSpGRAaXdS2hqrrYHDmjQx/9N5mmb6hAwyGLUbBqc1mWbsY1A6Nc+jLxnWCPOo3X+FDdHoSPPHEbvjkum3b/8R20H+spfpos+luKs1NKtK/TGyXzV8Cw+Z/IMkahfe1eGPix6SEe/uIZBv/QSVmzp7XNlSU/Fg7dinSpM8rkQXPaiZPL90vdnNC2RnJ808M05TFn/UvM32z9g2+sxy1jVhT2qCKTHwRdV8iJTBACrQsrVNbkvTBno7W3JnuP/A5VmnSQJrQu7tfZo6RuSbAH4cuWpyDGrzkoL0lrA0e2Li+mSaNPizunckWL3l8jX/FymN6riSxjFEb9uBO5Cps8GbTmz6dfKzy4c0Nn6tmoHQgLlbAReRvWrBSePg7R2WkVI+FT86jdPgNaIyjgvJqkxIXLeaL7uPk4c2gnVn87TOZR+6jvargqfjbN2D5bbNTyCSmOy4e/2m+tJ5DSzO1YVW1paY9nl1HKd7SyDkvN0MREvnqsuqh7sNMO2N3zBkdbs1a54zBUbPeVLE2OhNX9vaRuTjASPtWG2vPHtE/xOkI/S1CkehtU7zkFmye0U9aJk31sPHwV2g5SPJXqdYhILO9WSnF0qGlq3MHHLxp5Wje8iTKlrNq4irVmHWfvVtb0qWln/7cCexeNUFVdbI8x114gLjZt0JrKzt+b1v0RRvuXjMSZ7Su0l0Jy51RoPmatzpt8attSHFg6WmdnVLSET5t37LdZOLpWv6EmaTInVO44FKUadcPizpaXpGjrIVm7ceP5S6DsZ9G/R41lzOkOQfiUjtGaJRsW6xqnB1b2qQRaXGsMRnJGb5T05mQufLrUH/RBUcNvQxvID6+aRrE96tTWHxeyPQhfbY9mmNRziWzest9nYvk281MO0siKkMrZFdtnXgRtGqEQKT7A3pNq4eqdS2ZL5c1WCKvHmT7wt+5fVQinWeN3if1aOWFga9O6ibHLI/DrntfWisRrHm0mmOMXqLw9UkPozfKLugVAXr6Ygj0IX/WWXdFp6HR56X2+K7B2pvmHhjSyIpSqUhf9vv1ZWpDHbWjTEnj5Qv8AVQ2a9xyOxprfMT657w8sHNldzY4WmyN8RNTGtvNEpPBAc4gZAXs8/LXfreRpWfBxrpgbYsXC85NRynEmqskN/93KGj1VN8ZGwrlFTPPd8N9jNJO6OcLnv3kBDq2YIG1iEmwhfLRppcono3XOBqr33I5V2LNgaLRLZC3sgY+n/yHTiXgu6lRQeP+j39u0waCbeKapIcrLV0x4+Z6qSTK2x5jLyoUQF4TPSHT3Lf5akL0ftZeRMhGyHivPgTa1UCByuLB9Ph0plsbvBHOEz1esAQw6e9ho+t66dj05/bZuMe/ETvhshNKjVT9U8R4jrS1NwRrJmbUDLY1vWXQz0U1lDPao03iND9XtQfhqlGuCKb2WyabZOq0qCxiE1jW6YXAH05pN3/0rMHOtdTIxs99qeJaMWldBBLF6vxziwyw+ORbChE+d0aF2cpnbd/YL7DoR/ctRGsSz0Orz0WjQpb9sxXG/TVg6ro/UrQn2IHxezbugy3ATqQ8KvIBJ3rWsNcNq3ogl25FXeADVsHRsbxzftVlVzcZz/MTUmZjmpUDTsV+38jBrR4nmCN/0no2jeWQtVsAZsMfDv9uSE8ppCyq8qwdUE6cu/KOqsY57rb6se5gv7lQItDHDUnBNnxWfLj8ls09tXYwDy8dK3SgYCR/VvaRLEeUFzGhrSTcSPiK6ka+FW0cEOnOPPFHmAi0l2j7jM7wWy1mMoZqYKi3TrJdMtua1I6N2M3cgS4Go0xpIJ+/klaPbSdQFe4y59gIfSviM40e7eFf19dReIppcsoE3avaZIdO10+0yUSMYCR9NK28cHfOyIU0VMYrbpqVCwRxJpV3p7mFihkyqNguO4+HTdll4+9KI08jdsuVTtv4nfecJIpMsBcuiWO320nrn7H5mF6VqyRnN5S8Wb0OWAm1p77Hygsy29NZojzrlReNIsAfhc8+YC+snH9O1cNKKAcrxK7pEG5XhnWeiuVcXab3l4M84J45zMRfU9Xt0FEzVUvWkiffkWggMMo2ZzHgnzOjjjBZVTYTvsxkvcPDMf5fwzd11Ve4mJSI7tEkJPHvy0Ngts7o9CB/toB23er/ueuvmjsOuXxfp0mxVZmw9g7QZMkvzTQu/0RF2dVcyGagH0dIayjTpo3Zgkpeib/WcsrxRMBI+2rRCm1c42I6APR7+LSeuR85SpnG4f+UMtk3xtnrki6UW02HF/TYEyWwiUnsXDpX3i8wQgnoPUZp2h+09cbTXuuGNtaY62Uj4jq6ZjmPrZutsYlKMhC8me1qaRD85Zo6QqWWbjlqlO/KEpqZpitpSMJ7vZ2ldpD3GXNumDyV8tHmi2ejVskpat0ebb7Tjq2aqaancMoppcpPDhqZlaXrWUjASvjVf1JBHs1gqE9t038mpUDyPifC97y9ulPPwEMeyuOkuHxISgrNnTuvSPlSx6y5dtXG04NTr0wnKdns1LabY0m/zacmZLW8F/TbeljeRpbUe9qgzpv7FNt8ehI/a8MfMC3BzTa9rDm3MuHDdX/xG4F5lTd2l66dtOjaF1uSVyl9RV1dslW/XDMOmAystFhsutsF3F9vh1TBkQQS2Hn6tqv+puF7Hz9Gm/zjZpgvH9mHOINNLjcywINiD8NGlaIqZ1udpAz1kaSPDpROHlPVvFFNaTGHevptyujomW0v5I1qWw+P7d8xmGwlfbDykZitMhIn2ePjTeah1+n8XDU1aBH9b7Gq9fmKXMnUW/vh+NBtjgnEtlzHfFp02d1hbe2UkfO8ztRdbwnfrzCH4zelvlQR3mrNPd2zZ/LY5rXodjUTL0gkU9hhz7TgY22Hpea0to5UrtP1CR960ebbK5DmlmUBLQUv4YrsZw1KdxnS/WS7IleXdrg2RWeQTy15pY9n40P8fAAD//zvCKFcAABsESURBVO1dB1wUxxf+LFQLYkfErtiNXROjURNFsYslYuxgVKyxF+wlsWssCIKKvcdesSRRo7F3xd4SGxaaoPDft7hzu3t3cMfdEf3fzO+n+2bmzZuZb/Z2v31TSJfFOU8iLBQy2Nih7fQ9yFGwlNE1HA4Yjkt7lmmV89vyD0t7cu0UNo1oyuK6hB/X3kFGOwcx613kawT+4K6lZgmbWpWYmODbbDg6NxrArLQeVQX/vHzI4nIht7MLtkw5y5LWHliM+ZvGsbhcqFi8JuYN3IT06dLLkxXyh4T3uBB+Eou2TsblO6cVefLItp8vIEfW3PIko+V5G8di3cEAveW6eNhghLcty5+6Kg7L9sSz+KckzNx9DZmyZmNNGt2mOp4/vsfiKQkdh89ErabeTG1ch1r45144i8uFXPkLY+K64yzpr70bETLBj8XlQoWvPfDj1BCkS5dOnqyQExMS8Pj2NWxaOBFX/jqkyJMi9pmyYM6+m1I01dfx3rXx5O4NneWb+w5Ho86a+35b4M/YtWy2Tl2eqBuB3hsfIn2GjGLmg/NH8du4troVhdTm49bBrUIdMT8xMQELWuXTq9vml93IU7yi3nzKiH71FNfC1uPE6mlI+PBep26J2q3QYOBCnXmGJsbHRiHg+6J61ZuPWy/0qzbLX9qlLGJeP2dxQwSPIUEo9mUTpvr48gncPrlHjGfNUwCFqzZAllz5WT4J79/FIKT7F3gX9VqRLkV8Qq/DLrOTGCV8Fnopy0t60jVrbjd0CjglRUFt2Dy6BYtLgqXGXLLvWqYmWk7aIkVxaOFgXN6/ksVTEhr+FIDitZqnpJZs/sOLf2Crv5denZ5rbsHGPpOYHxf9Bku8S+jVTW3GX4sckS1z0nP0wwegdJeo1JpKk3LpLEn4vKbtQF73KoqOfHgfj1ePwhH54oniB+ecv7ji4WEI4bt3JgzbJ3ZQ2FdH5INOdS9q46ZWgZzwmcumViUmJliK8FGzirqWwsQegSiYt1iKrVy0ZRJW7vtVp97BuXdgb5tErklh/ynNA0FnAR2Jm4+E4MKtkzpykpIa18iI2X3sWP6S7fGYuT6OxT8VoXpDL3T11+B09+o5TOvhYVTzLEX4qBFFylaB76RAZMvlkmKbDq4LwIZ5Y7X08hUpCf/Qwyz9fXw8bp7TkE6WkYIQPK4X3r56oVNLTfgCRvXA2cM7dOryRN0IWOzlL3wwfNXZH+U9eyBDRhvdlX9MjRKe9+uHeCAq4l8tvYoteot2pIy3zx6CPuaNCdERT/FHiPY9KtlQE75fW+aVsgy+qgnfgXn9cO3QekV5h6w50GH+UdBVCvpIGeX3Wn8P5BihkBLBJh1bxyzwXaX5yHpx7yrWDKhLWYpgsTH/WIuphK/lxM1wLfsla/PjKydETsASDBAeXfwzWZIpf/dHPLqFVX5fGWDVOJULwZlg9/HWfxudiCo9o40zkMbaFiN8uYtVELx7e1l36GY+GjgKl/eF6vzSK1W/Per7zWH6hhC+p+HnhYdIQ1ZGlyD/QcW8eYGlnctoqckJn7lsalViYoIxhM81VyGsn3CC1Zich48pCUKe7K7wqN4GFUt8iVIFv0Bmh6zybCZ3mlQXtx5dZXFJ2DjpFFxyaAj1N33dEC+QbHOGEm7psX2KhlQePf8BPjNizVmFWWxN3XIGzrk13pGp3Rvi3rXzRtk2hvCpyVdyHj55I/K4FcU3Xt1QrHw15ClQDLb2Gmzler/0bILbl/6WJ4kv+QVHHrC06LevMcjDncXNIagJ36+DvXHp+EFzmLYaG8a8/OUvYkMICIGYLn0GFKryHQpXawiXklWRLV8RwXusPWOgj/iQZ8xz5Ao2Hjd+34J9s3qxuDkEOeEztF/qeg0hfFQmSy5X0Qsnx2DTiGYCidX+kO0WcgGO2ZJmRQxpl7NrMXj/+gdr2v1zh7FtfHsWlwRLj7mphK9en1ko/a3GWbN3Zk/c/OM3qflmucoJnz5ibEpFmR3S4fQSR2Yi/FECPIfHsPinKFiM8H3bbx5K1m3L+hy2YBCuHFjN4mqhVtdx+KLZjyzZEMJHX4LLfauwMroEOZl7cfcK1gysp6Um1zGXTXkl7s5OyGanmYaU8u6/jcSTKMNuEDXha+dfEw+f3ZFMKa5VS9bGnP6aL09DCZ/CiBBxyVkA3T0Ho2F1L8WU7/FLBzF4gbdaHbP7rUW1Ut+w9Lb+NfDo2V0WN5dwKSQTbJJmqPDybSJq9v60vqpKVa2N/nM0+P/74BbGtjf+61JN+CZ2rodH4Vd0wli5XlP4TAxkeYYSPlbgo+BSqAS8+o5D6ep1FVO+d66cwc8+jdXqmH/oHmxskzwU5OHz+0ZD+LWUU5HACV8qQFMVkb/89ZEuqUjHhceQzaWIGDWEgEjl5Nf0GWxQtKYn6JmeKbvSkxbSrYKWly9TDhd0DTrLTDy6dAxbxrRicXMIaUn4qL21uo4X3mc9WdNfPbmNlb01Hi0po+2MfchdtLwUxeJ2hfA+Tv8HbIGKddHMfw3Tv7ArWHCkjGRxSbD0mJtK+Mp7dkftHpOl5uLP5RNwdutCFjeHYGnC923lDFgwwJ41dcW+eEwOjWPxT1GwGOFT38gLWrsiMeGDXgxaTNiE/OU0L0VDCB9N0dIPRJ9d9dfQnZN7sXNqZ602yAmfuWzKK3ni0w6ZJIYiy5h08jx++fuSLEW/2LaeD/q3mcgU+s3xwunrmi89liEIrep0wU/tp7Gk1BI+yUCNMnUx00/zkHny4gG8RleVstm1b+txaP+thrSPWNwVR8/vZvnmEjZNcEDZwhoPQoXuUYj9hH5n41b9jryFirPuptYrpSY7yU1nNuk2GE26D2Z1ppbwSQaqftcS3cctkqJ4G/EcQ5qUZXFJmLL5NLLncZWiGNiwBGIi37C4qYIag9RiaWo7DCnvki8fevv1Rfr0mnuTyu3bswdHDh8yxIRFdOQvvpSmtnxX3RCmDZM8+6klfFInyPP3/ZxDyO6mWTu1Y1JH3D19QFJh1z6bHzOvYOTzx1jmU4nlmUNIa8JH07Q+odfY+nHqAy0/oiVD8uAxeAmKfdWMJW0Z3RKPLh9ncbVQtc1AVO8wjCX/HjQa53cGsbgkWHrM85WpgVaTtkrV4WjQKFzYuZTFUxJcSlVH6ykaj97VsHU4OL9/SsWMypdjYAkPn39nW3h/a8Pa1HlqLE5c0c9xmKIOoVOXrnAvWVKRExsTi4nj9S9TUCgbGLEY4esw9wiyF3AXm5HSYlRa6Np5iXK6yBDCR8b3zvxRcAVrbjx5v+v1nonS33mzpDPCF8Qx4UtCHeSEj/LMYVNehzkI31flG+CXXiuY2Zlrh2PzkWUsLhcWD9mOckU0hMxUwke29866waZ4I2PeoOEgzUNcqrt+leaY0F2z4eLB09toP1b7q1bST+21f2tb9G6h+aH5ClO6R4Sp3U8huBUvi1HLNC+01y/+xbBmFVLVtJqN2qLz6Hms7I6lM7AjeAaLywU1yTSV8JHteQfvsCneuNgY9KtfWF6lKJMnkzyaUjgdth2BY3ykqMnXz4nwNfRohCHDR2j1ee+e3Zg+bapWelol0CJ/WuxPIbnF67S5jgiaFEwlfGSnXKMuqOOr+fjU91zvuvScwhtI05Q0XWmukNaEj9pd/fshqNr2J9aF10/uILR3TRZP0hkq6AxiaSmtITcUJ0uPOW1S6bT4JGv3uW0Bya6hZIofBVuHzPBdHc6SiSMEdSot3p8s0UTB0oRvxzQHFHdN+rhLSATKdo0CbdxITdj023Y4OTkpiiYmJuK7unUUaaZGLEb41F8utNaO1sfpCvJ1I1K+vgeDmpxFCBtAVvX9mla8SkXFK91Q3UIuKr6wlvWoqHNhqCVsyhtjDsJX2MUdK/2PMLN3n9yA9wTNi1bKoI0Xq8cqPX/6CB9tsKB1e/f+0fzwJDvyK63l2z3zGpvWpd3BtEtYHWjX5/afL8I5S06WNSbQB2FntrO4PqGyey28inyhc22gukz+XOlwcJYjS97/9wf4zdU/DcIU00AYtmQnCpepzGpaMXUgju3QeEdZhgFCodIVMTxQ4yGNePoYI1pqez4KuJfHyOB9Cov6CB/trM0t7Oi9f/2CQl8dyeyUHdN3XmbTupGvX2Jw49JqNdAawHFr/mB69JDyb/8lnj28o6UrT6BF/vXa9MCfO1aD1v7pC5zw6UPG8PTWU7eLa+ukEvq8SC0mbBRmWWpJasluIiByGPEwXFiPHc/0dQnqpT00w0IzLerg/k0bfNd/PkumpTWhvWqmaN8ukxOKVPcAeYiSC/8F4ctoay+SGmmHNLVv24Tvcf/sIdZU9XQ2kewVPavi7bNHTEcS1NO5cTGRCOzornOGyxJjLrWDruS97bNJ00bxPeynuXfkuvpk9ZrIG0c3Y9/s3vrUWTotOXDKVxj3Th9kaboESxK+LI7p8HeA5h104VYC2oyL0dUMg9I+e8Kn3nkV+zYCG4Y1Bn3lSIF+rC0nbkLOwtpTRYYSPrJF61K2+LdmNz5NSXjPOwL6MUlB3+JWylcTPkoz1SbZkII5CF9GYV1M2Lw7yJD+4+I1wXjo3vlYLByVIoXyRathbv8NsP2460tK10f42tXviX5e40GeuNX7F2LnsbWgI1jkIYdTHiwYtAVuuYuw5PVhgZi7YQyLywUibvMGbJQnYfeJ9fhl9RDExb9TpDvYZUKbuj3Qrr6vsLU9B3YcW4OpoQMVOvoitHGDNnBQiBeaTNO6HxL0aadNeg4XN0zeqNldGC0cAzSoYZKXOzUtyGhji/lhd4WHa1I/ycaxnWuxYsoAZq5szfroNW2Z1i5JfYSvxY+j4PFDX5Dn8fDGYOxbvRC0jEEecroUwJAA4YszRx6W/PeBrQgaq5muZxmC0G3sQlRr0Iol0ZEuu1fMBR2hog5EEFv7+YPaTS/C5ZP74/gu/S9rTvjUCBofr9lxJCq37scKqp/FNA4NBwegaA1PpkNCch4+epmmz2iL8D9/w6n1s/Hq8S1FWYqUafAD6vaaztLJ3uK2BbXuN0mhw7yjiulfOkZr17QuOqc485aojGqCB42OWqHNESntuv0vCB/1q7bPFJRv3E3qovj+U3v51MSHjnJZN7iBQKhvsnK0IabxcDpKSfMs+D3YH+e3L2E6csESYy63TzJ56MixIoUrB9eIM2h0fxkS6D3dffllxbPr2e2L2Dmlk7ZjRnAmlPi6Jap4DRDvEUPW2luS8Pk0scHgdpp1+b1mxSLs7AdDuq1T57MnfLR9vFvwBYWHjXpKc+nkjbPLnE0gZHkVN7AcCWMIH5UjlzAd9UKeA0fn3Fp2yQso/wHJ69JF+Ey1KbdvDsJH9oZ5z0CzWh3lpoW1azF4GvEYOQVi5miv+fHJlfQRvg7f9UafVv5MNUF4IL+JisDj5/fFa97s+VHIRTl1SzptRlfTewYgGaMNI7RxRB6oXMTb54iOjRTc3u9FzyIRPnkwhvCpj2cZtOAddp5QklW57bSQ/WauRtka9VhVvwVMFYkPS0iFQGSOzs2TB9ocEfn6hXDGnzPbMCHPJ1kf4WvVxx8NOmi+oskj9y4mSiSAMZFvBZKXW7G7mGyRznjvr/WeAUjEdNae62z6l8pQoN9k1JtX4gte/F1mcVI83Enn/4nweTT2xOChw6hbivBfT+nSs9hn5XXFM5HIV/TLf5EgrKvOnDOfIk9qfHKET36+KekTSYl6+Q9e/yts4hHOPsshLOeR1gJK9mjpDS2X0RdoCRAtBVIHsv3m6QOBYGaEjZ0jHJxysnMFJd1PlfCRU6NH6FUFvurparWXT+oTnSpBnj7a9SwnVpSfnHeP8i0x5mRXHoh81fAeLk8SZbpvEmQfkb8Hj9V5pi4pV2jig6+7a9amS8aI7Ee+eIwMwoYwhyw52FmFUv5/TfjCZjvCNWc6sTnmOI7lsyd8hAR9lXiOWC6Nkd4r3SBntyxEpVZ+TMcQwvf8ziU4u7lrvUSYEUEg23tn9ET4Mf3TinLCZy6b8jaYi/Blz5oLmyefEXao2sjNK2QiVmMCfTHZN4ilG0r4WIFkhCELOuLYpQPJaEBYtJ4BtIGDNpoYE4whfHRm8NmgTHD4+JFlqkvdmHbq0s3k5IwZO68ID/akh0B83DtxzRt5u0wJtCFi0oa/tF5wcptEyFZPHwrvoRpviqGET25HnxwysS/+2rNBX7aYTt7AfrPXwrVoqWT11Jn/T4SvT99+aNnaS91FrFgWIv7TykjDhG96TkNZjy7J1kgH2dIGOEMOXlYTvmQNC5kv718XT0jQt8FOKp+rSDk0HbOKHVUipad0/VQJH7WbDpWmw6WloGvHLnkqm4wKZWfySbq6rnSY9eaRLUB2kgvmHnN1XTSt+4OwqztrnoLqLEX82IqJOLNlgSJNHnGv44V6frOTfY/L9Un+LwlfwbzpsW+6A2uSOc6C3XMgDBmFDxp5eBcbC0+PBvIkk2WLreGTWkau90ZDgxTTq1IeXWngdgguXPIAyM/t2z+7D64f3SRXFWU5OQv/cxvObF2AFuOFacyPO8vkBegrYetYL5CbOLlgCZvy+u5280J2ezt5kigbs0tXKkxr7gKG7ECubJrpaimPpkxHLukmrIO7ovhLG8E7Z2DpjhmSGrsWylscPZoOQyX3r+CUyZml6xJOXA7DrHUjjTpmpYRbOUzpGaw4m0+X7XChvTTtu+v4WsGz+EqXis60Hp42GNJe41ZvNjIG1x+YRrB0VmRAYtcx81Hdow3TDNsQhPVzRrO4KQJNgw4V1gbK/2qHZI+mY1dMGYjbl08r/tLG0a3LBRKo7W0qWLKCMKU6FnS1c1B6WCWb0pUOi6bpY/qLG4aG+u18QdPG0lEtusoRCX4Yflmcyj26dQXex+vfYt2wox9a9tLg+Cnv0g1eHooCBZUvv7i4ODQRHtoJJhJ/XTgam6bPI0N2HgqH2G4b304kWxLho3tL10H1pF9JOCyZSEyOQqUV3ivKkwfaJHJ85VRc3LNMnNmR5+mTiUjU6jYe5QSCKl//ptYnL9fdU/vEs12T29lK5TxHLBMcEEme8uQ8l+o65HH11OuuaV1x+6/dchWdsi4P3ur+dUQSLC9AhzU3G7sWRHp1BWr3reO7xDMKU1o7KZU355hLNhVX4QOX7gUibeSJTC+8x+XTzqR7ZMlwXNy9TFFMHbHP4izwhKWg3b/q8nJd2sF9U1hGcHlvaIqEt8eKqyC7FMy5S3fpUHvUKpdBtEvLiar1ihZmrhLFeGr+K1WqNOYvWqxVdM2qlVgaqHvKXkvZwASLEz6pHXQT5y72hfhn1hKFqR5y0dPiVVrsaUxQk7M9M3zF4vSjKiJ4FO0zO+Pt80d4cO6I1nlP+uqxhE19dZkjnbxIxVzLoELx6oyo3XxwGb9f2CNOv6WmDlqrV6ZQJfHsPSKVbyIjEP1OeKA+uYmbDy+J07GpsUtlaN1hsfylULpQZWQj97yNvXiG4KOnd3D13jlxWjo1tsmZdmyBI7JnSfKqnb35Ae0npP3mDSI3c/aHsy9Umsrs/21RkJfPXIHW8RUtWxWlqtVBFuccotl7V8/j2K61glcmdSSX1hyWrPw16M+ykScx+u0r8UiVR7eu4tbFk4h4+iTVzXfInBXulb5CUeFAZzsHR/G+/Pf+LZDtG2ePpbrNqW5QGhTce/AQMmRIehFI1X0K3j2pLXS1F5bSuJSuLvxVo0r4IBDtOOFPft05tVd8Hsv1DJWJnOUtUQnZXIuyPytGL+xXwl82ePnwBp4JszDC4BtqTkvPMVsu8S8w0bsjQdgC+UFYwvJKWAdOHsOUPFxaxj6TBHJ+UH/pEOuMwhR2zJvneHz1JFsOZWw3zD3mxtZvrL6TS2HkFe5PZ7fiosc55s1LYY3obdDsW/SrZ8aaM6u+2rs3fW0cgnYq10AbW2H/QT+habPmimLk3WvS2MPsz8k0I3yK3pgQ0UfOTDCp2LRBXkOJRJpik5dNGwTqVcqARQPtWWUtR8fgyr3UESBmxEihTb/xqN+uJyt1ct9mBI/XrJNjGVz4v0WgdJkymLdgkaJ/scJDu6kFHtqKSniEI8ARSDMEQobb48sySR91dOj/l32iTfmeEdu9fNUauLq6KvoQsjQIq0JXKNLMEeGET0DREiTSHIPDbRiGwJox9ihTOOlHGLI7HrM36J8iNMyicVpzD9wWvVhUitbTDfEsI2yqeGmcEa79WSPQf+AgNG3eQtGHoCUBWLt6lSKNRzgCHIHPEwFH+3T4c76D4MVPmlHqNy8Wh8+lfmeuhML+sMOKkxiio6PRTPhQtETghE9AlRM+S9xa1mOTpi2zZs8tdvjNy6e4deGk9XSe91REYFnoKuR3c2NoREdFoZlnIxbnAkeAI8ARUCNQpWo1TJuuXF+/6Nf52LRxg1rVLHFO+AQYOeEzy73EjXAErBYB9Vf6r3PnYOuWzVaLB+84R4AjkDIC3j90QgfvjkwxIiICHb9vx+LmFjjhExDlhM/ctxW3xxGwHgRsbW2xaEkQ7OzshMO/hfMmI15igF8f6wGA95QjwBH4LBD4rAnf9cMbsH9uX5OBlhM+c9k0uVHcAEeAI8AR4AhwBDgCHAEzIfDZET6XUtWFBY5Jiyaf374knjhuKhaWsGlqm3h5jgBHgCPAEeAIcAQ4AuZC4LMjfObqOLfDEeAIcAQ4AhwBjgBHwFoQ4ITPWkaa95MjwBHgCHAEOAIcAatFgBM+qx163nGOAEeAI8AR4AhwBKwFAU74rGWkeT85AhwBjgBHgCPAEbBaBDjhs9qh5x3nCHAEOAIcAY4AR8BaEOCEz1pGmveTI8AR4AhwBDgCHAGrRYATPqsdet5xjgBHgCPAEeAIcASsBQFO+KxlpHk/OQIcAY4AR4AjwBGwWgQ44bPaoecd5whwBDgCHAGOAEfAWhDghM9aRpr3kyPAEeAIcAQ4AhwBq0WAEz6rHXrecY4AR4AjwBHgCHAErAUBTvisZaR5PzkCHAGOAEeAI8ARsFoEOOGz2qHnHecIcAQ4AhwBjgBHwFoQ4ITPWkaa95MjwBHgCHAEOAIcAatFgBM+qx163nGOAEeAI8AR4AhwBKwFAU74rGWkeT85AhwBjgBHgCPAEbBaBDjhs9qh5x3nCHAEOAIcAY4AR8BaEOCEz1pGmveTI8AR4AhwBDgCHAGrRYATPqsdet5xjgBHgCPAEeAIcASsBQFO+KxlpHk/OQIcAY4AR4AjwBGwWgT+B4eo/XE/yxggAAAAAElFTkSuQmCC;" vertex="1" parent="1">
                    <mxGeometry x="270" y="70" width="244.62" height="30" as="geometry"/>
                </mxCell>
                <mxCell id="4" value="" style="shape=image;verticalLabelPosition=bottom;labelBackgroundColor=#ffffff;verticalAlign=top;aspect=fixed;imageAspect=0;image=data:image/png,iVBORw0KGgoAAAANSUhEUgAAAkAAAAA0CAYAAABitofIAAAMTGlDQ1BJQ0MgUHJvZmlsZQAASImVlwdcU1cXwO8bmSSsQARkhL1EkRlARggrgoBMQVRCEkgYMSYEETelVMG6RRTUilZFFK0DkDpR6ywK7jqKWlQqtVjFhcp3M0Brv/H7Tn73vX/OPffcc07ufXkXAL1avkyWj+oDUCAtlCdEhrImpaWzSI8AAj804A5s+AKFjBMfHwOgDN3/Lq+uQ1soV9xUvv7Z/1/FQChSCABA4iFnCRWCAsgHAMBLBTJ5IQBENtTbziyUqTgDspEcBghZpuIcDZepOEvD1WqbpAQu5F0AkGl8vjwHAN0WqGcVCXKgH92bkN2lQokUAD0y5CCBmC+EHAV5VEHBdBVDO+CU9ZmfnL/5zBr2yefnDLMmF7WQwyQKWT5/1v9Zjv8tBfnKoTkcYKOJ5VEJqpxh3W7mTY9WMQ1yrzQrNg6yIeQ3EqHaHjJKFSujkjX2qLlAwYU1A0zI7kJ+WDRkc8gR0vzYGK0+K1sSwYMMVwhaLCnkJWnHLhIpwhO1Pmvl0xPihjhbzuVoxzby5ep5VfanlHnJHK3/m2IRb8j/yxJxUipkKgAYtUiSEgtZF7KRIi8xWmOD2ZSIubFDNnJlgip+O8hskTQyVOMfy8iWRyRo7WUFiqF8sXKxhBer5epCcVKUpj7YTgFfHb8J5CaRlJM85EekmBQzlItQFBauyR1rF0mTtfli92SFoQnasX2y/HitPU4W5Ueq9DaQzRRFidqx+LhCuCA1/vEYWWF8kiZOPDOXPz5eEw9eBGIAF4QBFlDClgWmg1wgae9t7oXfND0RgA/kIAeIgJtWMzQiVd0jhddEUAL+gCQCiuFxoepeESiC+g/DWs3VDWSre4vUI/LAI8gFIBrkw+9K9Sjp8Gwp4DeokfxjdgGMNR82Vd8/dRyoidFqlEN+WXpDlsRwYhgxihhBdMbN8CA8AI+B1xDYPHA27jcU7Sd7wiNCB+EB4Rqhi3BrmqRU/kUsE0AX9B+hzTjr84xxB+jTGw/FA6F36Bln4mbADfeC83DwYDizN9RytXGrcmf9mzyHM/is5lo7ijsFpYyghFCcvhyp66LrPexFVdHP66OJNWu4qtzhni/n535WZyG8R39piS3C9mNnsBPYOeww1gxY2DGsBbuIHVHx8Br6Tb2GhmZLUMeTB/1I/jEfXzunqpIK9wb3Hvf32j5QKCpWPR8Bd7psllySIy5kceCTX8TiSQWjR7E83D08AFD9j2geUy+Y6v8HhHn+k650CwCBQYODg4c/6aK7AdjfB7f53U86J7h3dTsBOLtaoJQXaXS46kKATwM9uKNMgSWwBU4wIw/gAwJACAgH40EcSAJpYCqssxiuZzmYCeaAhaAcVILlYA1YDzaBLWAH2A32gWZwGJwAP4EL4DK4Bm7D9dMNnoI+8AoMIAhCQugIAzFFrBB7xBXxQNhIEBKOxCAJSBqSieQgUkSJzEG+QiqRlch6ZDNSj/yAHEJOIOeQDuQWch/pQf5C3qEYSkONUAvUAR2DslEOGo0moVPQHHQGWoKWoUvRarQO3YU2oSfQC+g1tAt9ivZjANPBmJg15oaxMS4Wh6Vj2Zgcm4dVYFVYHdaItcJf+grWhfVib3EizsBZuBtcw1F4Mi7AZ+Dz8CX4enwH3oSfwq/g9/E+/COBTjAnuBL8CTzCJEIOYSahnFBF2EY4SDgNd1M34RWRSGQSHYm+cDemEXOJs4lLiBuIe4jHiR3Eh8R+EolkSnIlBZLiSHxSIamctI60i3SM1EnqJr0h65CtyB7kCHI6WUouJVeRd5KPkjvJj8kDFH2KPcWfEkcRUmZRllG2UloplyjdlAGqAdWRGkhNouZSF1KrqY3U09Q71Bc6Ojo2On46E3UkOgt0qnX26pzVua/zlmZIc6FxaRk0JW0pbTvtOO0W7QWdTnegh9DT6YX0pfR6+kn6PfobXYbuaF2erlB3vm6NbpNup+4zPYqevR5Hb6peiV6V3n69S3q9+hR9B32uPl9/nn6N/iH9G/r9BgyDsQZxBgUGSwx2GpwzeGJIMnQwDDcUGpYZbjE8afiQgTFsGVyGgPEVYyvjNKPbiGjkaMQzyjWqNNpt1G7UZ2xo7GWcYlxsXGN8xLiLiTEdmDxmPnMZcx/zOvPdCIsRnBGiEYtHNI7oHPHaZKRJiInIpMJkj8k1k3emLNNw0zzTFabNpnfNcDMXs4lmM802mp026x1pNDJgpGBkxch9I38xR81dzBPMZ5tvMb9o3m9haRFpIbNYZ3HSoteSaRlimWu52vKoZY8VwyrISmK12uqY1e8sYxaHlc+qZp1i9VmbW0dZK603W7dbD9g42iTblNrssblrS7Vl22bbrrZts+2zs7KbYDfHrsHuF3uKPdtebL/W/oz9awdHh1SHbxyaHZ44mjjyHEscGxzvONGdgp1mONU5XXUmOrOd85w3OF92QV28XcQuNS6XXFFXH1eJ6wbXjlGEUX6jpKPqRt1wo7lx3IrcGtzuj2aOjhldOrp59LMxdmPSx6wYc2bMR3dv93z3re63xxqOHT+2dGzr2L88XDwEHjUeVz3pnhGe8z1bPJ97uXqJvDZ63fRmeE/w/sa7zfuDj6+P3KfRp8fXzjfTt9b3BtuIHc9ewj7rR/AL9Zvvd9jvrb+Pf6H/Pv8/A9wC8gJ2BjwZ5zhONG7ruIeBNoH8wM2BXUGsoMyg74K6gq2D+cF1wQ9CbEOEIdtCHnOcObmcXZxnoe6h8tCDoa+5/ty53ONhWFhkWEVYe7hheHL4+vB7ETYRORENEX2R3pGzI49HEaKio1ZE3eBZ8AS8el7feN/xc8efiqZFJ0avj34Q4xIjj2mdgE4YP2HVhDux9rHS2OY4EMeLWxV3N94xfkb8jxOJE+Mn1kx8lDA2YU7CmURG4rTEnYmvkkKTliXdTnZKVia3peilZKTUp7xODUtdmdo1acykuZMupJmlSdJa0knpKenb0vsnh09eM7k7wzujPOP6FMcpxVPOTTWbmj/1yDS9afxp+zMJmamZOzPf8+P4dfz+LF5WbVafgCtYK3gqDBGuFvaIAkUrRY+zA7NXZj/JCcxZldMjDhZXiXslXMl6yfPcqNxNua/z4vK25w3mp+bvKSAXZBYckhpK86SnpltOL57eIXOVlcu6ZvjPWDOjTx4t36ZAFFMULYVG8IX9otJJ+bXyflFQUU3Rm5kpM/cXGxRLiy/Ocpm1eNbjkoiS72fjswWz2+ZYz1k45/5cztzN85B5WfPa5tvOL5vfvSBywY6F1IV5C38udS9dWfryq9SvWsssyhaUPfw68uuGct1yefmNbwK+2bQIXyRZ1L7Yc/G6xR8rhBXnK90rqyrfLxEsOf/t2G+rvx1cmr20fZnPso3Liculy6+vCF6xY6XBypKVD1dNWNW0mrW6YvXLNdPWnKvyqtq0lrpWubarOqa6ZZ3duuXr3q8Xr79WE1qzp9a8dnHt6w3CDZ0bQzY2brLYVLnp3XeS725ujtzcVOdQV7WFuKVoy6OtKVvPfM/+vn6b2bbKbR+2S7d37UjYcaret75+p/nOZQ1og7KhZ1fGrsu7w3a3NLo1bt7D3FO5F+xV7v39h8wfru+L3te2n72/8YD9gdqDjIMVTUjTrKa+ZnFzV0taS8eh8YfaWgNaD/44+sfth60P1xwxPrLsKPVo2dHBYyXH+o/LjveeyDnxsG1a2+2Tk05ePTXxVPvp6NNnf4r46eQZzpljZwPPHj7nf+7Qefb55gs+F5ouel88+LP3zwfbfdqbLvlearnsd7m1Y1zH0c7gzhNXwq78dJV39cK12Gsd15Ov37yRcaPrpvDmk1v5t57/UvTLwO0Fdwh3Ku7q3626Z36v7lfnX/d0+XQduR92/+KDxAe3HwoePv1N8dv77rJH9EdVj60e1z/xeHK4J6Ln8u+Tf+9+Kns60Fv+h8Eftc+cnh34M+TPi32T+rqfy58P/rXkhemL7S+9Xrb1x/ffe1XwauB1xRvTNzvest+eeZf67vHAzPek99UfnD+0foz+eGewYHBQxpfz1a8CGGxodjYAf20HgJ4GAOMyfH+YrDnnqQXRnE3VBP4Ta86CavEBoBHeVK/r3OMA7IXNATY6bKpX9aQQgHp6DjetKLI9PTS+aPDEQ3gzOPjCAgBSKwAf5IODAxsGBz9shcHeAuD4DM35UiVEeDb4zktFncziBeAL+ReNwIDwBJf5WwAAAIplWElmTU0AKgAAAAgABAEaAAUAAAABAAAAPgEbAAUAAAABAAAARgEoAAMAAAABAAIAAIdpAAQAAAABAAAATgAAAAAAAACQAAAAAQAAAJAAAAABAAOShgAHAAAAEgAAAHigAgAEAAAAAQAAAkCgAwAEAAAAAQAAADQAAAAAQVNDSUkAAABTY3JlZW5zaG90y61L8wAAAAlwSFlzAAAWJQAAFiUBSVIk8AAAAdVpVFh0WE1MOmNvbS5hZG9iZS54bXAAAAAAADx4OnhtcG1ldGEgeG1sbnM6eD0iYWRvYmU6bnM6bWV0YS8iIHg6eG1wdGs9IlhNUCBDb3JlIDUuNC4wIj4KICAgPHJkZjpSREYgeG1sbnM6cmRmPSJodHRwOi8vd3d3LnczLm9yZy8xOTk5LzAyLzIyLXJkZi1zeW50YXgtbnMjIj4KICAgICAgPHJkZjpEZXNjcmlwdGlvbiByZGY6YWJvdXQ9IiIKICAgICAgICAgICAgeG1sbnM6ZXhpZj0iaHR0cDovL25zLmFkb2JlLmNvbS9leGlmLzEuMC8iPgogICAgICAgICA8ZXhpZjpQaXhlbFhEaW1lbnNpb24+NTc2PC9leGlmOlBpeGVsWERpbWVuc2lvbj4KICAgICAgICAgPGV4aWY6VXNlckNvbW1lbnQ+U2NyZWVuc2hvdDwvZXhpZjpVc2VyQ29tbWVudD4KICAgICAgICAgPGV4aWY6UGl4ZWxZRGltZW5zaW9uPjUyPC9leGlmOlBpeGVsWURpbWVuc2lvbj4KICAgICAgPC9yZGY6RGVzY3JpcHRpb24+CiAgIDwvcmRmOlJERj4KPC94OnhtcG1ldGE+CjwxpFcAAAAcaURPVAAAAAIAAAAAAAAAGgAAACgAAAAaAAAAGgAAE9zjRGmQAAATqElEQVR4AexdB1gU1xb+LShFVGyADYiCil1U1IiK/SEau0GfBuwaxUqMPaLG3rD3FjVW7C02sDd8KliIJVbsBUHsvjlD5u7O7szuEpcAcu/36W3nlvnvsPPPOefeyWBrZ/8ZPHAEOAIcAY4AR4AjwBFIRwhk4AQoHa02v1SOAEeAI8AR4AhwBEQEOAHiNwJHgCPAEeAIcAQ4AukOAU6A0t2S8wvmCHAEOAIcAY4AR4ATIH4PcAQ4AhwBjgBHgCOQ7hDgBCjdLTm/YI4AR4AjwBHgCHAEOAHi9wBHgCPAEeAIcAQ4AukOAU6A0t2S8wvmCHAEOAIcAY4AR4ATIH4PcAQ4AhwBjgBHgCOQ7hDgBCjdLTm/4LSCgEVmoJmX8J8QPn0CNoZ/wGd+bGlaWT4+T44ARyCVI8AJUCpfID699IvAIL8s6OhjIQLw/gPg0TUeb9+nXzz4lXMEOAIcAXMiwAmQOdHkfXEEzIRA7uwZcGSWNTJmSOxw7pb3mL7hndHe/QaOR978Tkzu8NZVOHdoO8tTom3QBORxLMzKDm/5DefCdrA8T6QtBAq5lkLfkA0GJ71m8iCc2b/FoIx2ZYP/9kL9dr20i2TpTx8/YFS7Goh7+UxWzjNpE4EiZSqjkX8/NvmE+DgsHN6F5SmhL/NKkOkqk0lrGU6A0tqK8fmmCwTm9rdE7fKZxGslrQ9pf0gLZCxM3/snLG1smdjhLSuxamIQy1NCVyZ883KsnjRIJvNPM+VrNoKPf1/WfN/aBTi5ez3L84T5ESha1hMD5xgmNzuWTsW2RRNNHrxd0ER4Ne1gUH5YK088uX/LoAyvTBsI1G7dBa37jGaT/SzY3Ht45Wd5StRp0xWtAoNZGZHgnjUKsnxaTHACZIZVy1W4GOr3nc16Oro8GHfOh7M8T3x9CPhUbYPWtTVvSD2nNMXrN3FmuVDXAhmxfbwV6ytk0zvMDjXN9qVLbv5tAjRh63nkyG3P5h7cvhbu37jC8mk5Ua9tT9Rs7s8u4deAenj96iXLp1SCE6CUQv7rGZcToK9nLf/1KylQsiqajQll4x6cMxBRf/zG8jzx9SEQ2CoYbWpr1L8+A0vgZfxzs1zonL6WqOORqP35JDg9l+8cjzfGrV/i2ClJgEpXq4sfJ2nu+3vXL2N0B2+zYJIaOuk4cg4q12/OpjKoSVm8fPqQ5VMqkTFjJuTM6yAb3rV8NQQMn8nKkqoBymplA5vsOVl7SrTsPQoVvH1ZGdcAMSjSfIIToDS/hCl3AZwApRz2KTVychEgqyxAxCIb5vtz4tJH/DDujcmXmZIEaNTvR2FfqAib69RezRB97jjLp/VEaiVASri6e3ojcOoaVpVUAsQaaiV+GDoDVX3asBJOgBgUaT7BCVCaX8KUuwBOgFIO+5QaObkIUBdfCwxsI7Cgv0OPqW9w4NxHKWs0TikC5OxeHj8v3MXm9+zBXQxpUZHlv4YEJ0CcAH0N97HSNXACpIQKLzMJAU6ATILpqxJKLgIUHmINe7vErV/k/Fy2U3ySzv5JKQI0ZMleFC5Whq3xohHdkrTriDVMxQlOgDgBSsW35xdNjROgL4JP2CJXpRGyZssh9vIg+iye3b4qpm3zFoRH817I7VwS2XI74l18LF7E3EB0eCiunzC89TaLdXYULlcTjsUrIZ9reVja2iHuyX08/DMCMZdPCY7Gh/Hpo3HnUJfKDZE5S1ZxPtQu7mmM6tXmK1oWORycxfpPHz7ozdE6Z144V6wna5+rkBvKNenOyqIPh+LuhcMsr524F3UcL2NuahcpprNY26JAqWpwLOEJB9cKsM1XEC8f3MKDq2dw/9IJ3P7fISTlyZgc66M48S8sdHcujyol68CjWHXks3PElVvncTxqP45d3IcXcU/hmKcwXBzcxFHiEmJx4fopoyNmypgZZYpUQpminijp4gEXRzfExr9A1F8RuHDtJI5F7jPowOxasBSKOWke7jTgfzxbo5xrFTZ2yPoRiH+r7AS973So4MOTwGTVEjaWGRCx0JpVn7n6Ee3GmG7+ooYpQYDyFnTB6LUaU1f8y+cY4FOCXYehRKbMFvCo3Rhlvq0P55IVkFnI/3XpHM4f3o2IQzvwNiEexTyqCz4ujmI3D/6Kxq0r5w11KdbZ5LAT+3Sr8C0Ku5VGjjz2ePE4Rmx75cxhkZzRThe1ULSMp7Dtt5KsunL9FihQRHNdu1eGICEuViYjZcJCl+NN/CspqxeTj031Ju1QTJifXb78sLXLg4yZMuPpgzu4Gx2JaxdOIerEgX+8zTy1mcCsbXPI/KeObluN9+/e6uEiFZCvFbWh8OT+bUQe3y9VqcbflKqIWi06Im9BZ+TM4wCLrJZIEJzUX714ioe3ryNcWJOblyJU2ytV0L1N96arsNOO1j6rdTY8vvcXbkSewcWje5Nk4qU1r9UigA1zbPsacW5UUKpqHdTz64HcjoXEXZzxsc/x5N4t7Fo+Q7gXTrI2SgnadODbcQDsnYrCTvg7sbbNKf7d0BEFzx7ew5l9m3H24DYYut85AVJCNgll3dZch4Wljdji6a3LWNPXG3UDQ1Dcu7VqL0RmlnWpoFhfuFwtNBqyHJksEomLktDrF4+waUhTkVAp1UtlPTfcFX9cKH/nfBi2/KKxY0syUvzdL2tRqGxNMfv58yfMbi7fCuhSuQEaDV4uiSc5PrZiNCJCNTvGlDpwrd4U9frOYnNWknl+7zo2D2+O+OemOWGae32U5vQlZRkyZEBwp/mo7dFEsZtPwlp0n9QYw/1nolC+b0SZ56+ewPenUoryUmGRAiUwo8962NnmkYr04oS38eg/q61IhvQqhYLB7afBt5qfUpVJZd+PrIY7j24YlfWpkhnTftTc73M2v8eMjSZ6P//de0oQoD7T16FEpRrs+tbNGI4D6xayvFoie668GLb8AChWCkR+hrWsjEk7olj11YijmNa7BcsrJegh2KbvGGTImFGpWix78eQBJnVvjKcxdxRlfpy4EqW/lb/oKAqqFI71r4s7f0bq1RLh+WFYCHLZF9Cr0y2gB9bvU4cgLHSZbpXRfGojQERi+2mdVbRz2TRsXThB9TpmHrwFi79fWukhPqS5h6qso7Mbuo1dDAdnV1UZqYJI16i2XngSc1sqUozp3ukkOL1XrNtUsV4qvHr2CEL6++HjB+Mv4uQfR35yUji+ax02zvwFpD3N5aC+nfzSqUMI6fe91IzFhE/3cUtBa02/n4YC3UtrpgwGHXmhFDgBUkIlCWW6D1giN04edQz2oEQwqEG1H0agQtOeBttKldTHvum9cTV8o1SkF8sJULhAgNRJWUoSICJ7DQfOB2msTAn0R7ct2A93Lx4xKm7O9TE6WBIFslpYYl7QNrgVKm2w5Xvhej98fAerrIlE2xgBat8wEF2b/Cw4FKs/CLUHnLflV6zcHaJdJKb/LQI0uUdWNK6W+OkLGrjt6Dc4G226/w+1+bcJkG3O3Ji4PZL9AL9NeI0+dRMJKs1HLdDhfUHztiGLpZWaiFhOb7HZcuRiMoYIEPXVZ9pa8cA21sBAgs4xWTi8m+IhkMlFgBoFDEDjzkEGZqVfdeHIHswdHGDwDV63VaojQALx6zdT8xtN2rPN837VnTbLm0qA6N4Yu/EMslppNKesE5XEWOH4gjvRF1VqAQdBk9J/VqgqMddtSEchjA2oq0qmJXldAkQHlJaoVFN2bpckqx0/f3Qfg5vpKwqGrzgo00hqt1FK7187H+tDRipVgRMgRVhML9R+wNIPC6lzpUD5V4/uIFb4R6Yc27yFQKpvJQLk4OaBlhN2SE3F+G3cS8HkcxCvBFKVq6CroKGpIdMMUf+LOrjj3etYWTspY04CZJktJ6p3DJZdH5nA8rhoNBFPbkbi2Z1oaXhZHLl3Be5HnZCVSZn6/efCzauZlBVjMhfeFc4Uin18F3mc3OFcqT6yWGVjMu8S4rC4QwmjbyDmWh82sBkTgS1HoU2dbrIer9+7jDNXE82IVdxrw8mhqKyeMoYIUJ2K34kaJe1GZDIjc9e1u1HIn8cJnu7ecMxdSFsEHcZ4g8bWDu4uFdDKu7N2EaoKZjpb60QVPVWEnRPMNR+UVfrT1w41aYv83slWcLLXkDV3/3h8TBr/0SNAYZuWCW9+P8vmrkuSDm5YjLXThspkTM10Dp6PinW+Y+LGHmyS4LjQCNH0I+U/Cx85o/OCyLRgJ2hHyORAJgPdYIgA6WqiqC1tU79x8bRoCsj/TXEULVuFaRaonjQC/Ru46Zlj3CvXQr22PUiEhW9KVZI9aK+dP6HXThJeNjpQcYu8LgEisxxpoR7cvoZXz58gj3CKN53rQyYc7bDnt1kInTtGu8hgOr0QINrpRtcqBbqPaL3JhPj61QtxVyKZhsg/TdIoGSNAU3dfZeY3qV+6N8n0+u5tAoi8u5T0YKSfZEw58kGXAJFWRltL+eH9e7wUNJNkOiWTr7VwDAFpdpQIkNd37dHup0nS9MT44Z3rgtn0IF4IhIn+hkgzRmY7Mq9SSAoBomeq7iGHugch0gv4jzXlv5/iQGnoP7MdhKj9gNW+/tPrpuDkGvlCZcxkAU+/IJT+jz8WtEv055DafD91nx6ZWD+oET6+1zxcbARfIr9pB0SfIKld5O5lODRf/kMv1ZmTAEl9asfmcIK2E4hdu5kavyEih+ELh+DirmXaQyFzVis0Gb4G+UtWYeXndyzC4UXDWF4pYa71Uer7S8qyCFqvvVOvwUIgxFJYsmMyFm+fLGXFOKjtRDT1kp9Mq0aAyOdn95QrsLbUEMVdJ9Zh/G8DBA2SXFXdufFPCPDpz8a69eAa2o6qzvJqieRwgj49zxrZbRJV2XTqc6mAeLXhVcvpYaB9fgv50rx7I/c/0pX5X9hO1Qe56kBCBWlciExJLzv0A07aH2PmAN2HMz20Fo/sLnOapr5HrTkqI0k0FzUC5FS8LAYv3sOmS33uWDIF25fI7yM6JTto7lbZmzN9IoKcto0FczhBkw8InaZLWp0Ns0apag10HzZvXsehbz39lwC1OetinNLb4Mn0lxwaIG1NERGKcZ0b4vbVC4qwEPberTpjSs+miH32WFGmafchaNg+kNURQZ4/pKOeDxKRoAFzNsNS8AmSAn064uyBbVJWL9YlQJIA/b2sGNdf78R0u3yO6By8ADaCT88v7bwkcTHW3XSwUbiX/lgzVyYjZcj82LLXSBCJVvscCvkRuVWoJjUR/Y90/aWIlLmW0zx3yEdJV4Z1kEYSyUqAQgUflXuRx0yGwt5NeNOesJPJfxDY9vy2RQXVr/5rMDlU+y86x2QTtUAlBC3QK1YmJdICAdIlfmELBgvkZ6l0CbKYCGTnFVEgJ3EKRJbmtXGRkURZAyGjRICSuj66fZoj38l3IDo2Gsi6On05TPiuURuW1078PuoY8/+hcjUC1L3pULRv0Js1PRF1AAMEHx+1MD1wLSqVSPT7IpkBs/xwIuqgmrhYnhwEKHKpjUAEE4eNjf+MSt1fG5xDSlf6DRgvOxn56PbVWCn8kBsLuucFqfmDkAZo+h/XZG/aagRozIZTsu+bEfHZvlhOfqR5ZbbIAnrLl8xvRJaIuOkSRUleis1BgKgveuunh7WxoGvioG9vxQhO4KaE9ECAyIowO0zjw0UakJHff2sKPIoyVtmyY8rOS4zQ030xsWsj1Ye8LumOffoIPzUpo9g3FSoRIHppGN66sqDliVFtp1QxZdcV9qKjpK1RasPL9BFINgJEZp5Nwww7kOlOx0swLZVt3JUVG9LqkFDryXuRr4jmhts5PgA3Tu5i7aVEaidANnb2CFii2dlCu8RW9qwqTV8xLtWgA2p1n8jqQoc1A+0wUwu6BOifrI9a319SvmpEOJyFXVlS6DG5ierOrmY1/DHQb7wkqkqA9kyNRjarRHJIztP1+7mCHJ3VQu4c9tg6XoP/2gMLQLu6DIXkIEBXV2pMPveffIZ3v9RLgOj04ZADN0FkggI90Ps1LGZw55OE59wjMYzUULvAOi6qGqhBC3fCxb2C1FRRA0Q7Z8ZuOM1kjD2ISNBH+PBjky6DWJu5P/uLO89YgULCXARIoWvFohbCWzvtDJLC0uBeOLlng5Q1GKcHAkT33qxDGmdmIhO9azuZRC6VwPPtOBC+nTQvY+SjM3+o3PSt2077/iTC1LNGAdXxlQgQaW1Ie5PUMGXnZdBORymM69TApN2RkjyPExFINgK0uk9NthXeVLB9h66UbTFf1as6nt+7ptq8ZP328O6hMa8dWzkGEZtm6cmndgJEzuKNh61i8ya/n7MbQ4SHhMYfRKqUyqxy5EaVdoOlYtHMSOZGtaBLgP7J+qj1/SXl2mSFSErdvkVUuyMz2aGZmjc+JQ0QPZgPz77H+iDH6Umrg2S2dqlS2zmaiBWZzihcuhmBLhN9JDHF2NwEKJOw1JeWawjQrQcCcQtKUBw7NRTq+rKQqY1IhLFAav1xoRrNLe2Uoh1TakHX10FJA+TZoCUCRmj+7snvZ//v89maa++Qkf5+bIWdZ7UFc4gUlHylpDopTg4CRNqgfAVckF/w1XAoXETwbdSYgp2KlwN9XkQKpu6uI/n0QIDoOokASSSc8mTOXTa2j0lEnOS1Q4/xy1DWS7MBhe5p8kmTgtJ9VKZ6fdEfSJKZ2M1X1kYqp1iXAJHpq7e3Mz4pWDi02ymlhy7bJ/oiSXX0UdoZwk6xx3dvSkU8NgGB/wMAAP//Uy16rwAAGchJREFU7V0HfExZF/9rQRAlWhAtWtTNLsvqrCWiE2VZPr1Gj06irrarEyVqRNnVfYggSrRlrc4SlqwQq4UgIYjvnol335s3897MJJNMfPvu78c7995zz71zZjLv/06bNNly5vsIK7Q+G28jQ6YsOkkfP8ZjcesCFkvtOP8ochUuzdct8SyE+A/veV9OFCz3DVpN3c6Hrx3aiJBFQ3lfIPpviUDadOl13XsXj2HnxHbClMG1xcTNcK5URzdu7uuQn+PwEm9cPbDeQLbSQGXPwajWaYzStFnj4ecOYffUToq81nh/FIUnYSJ0yQOkTZNWJyHy6T14jq+iKu3IwnvIkD6Djifq5RM0HVlej79o/pII9A3VG7O08yo2Go2GlVJdNqjtZLSv35vzeHi74sXrKN5PDHF9XRami4SVT158RA2vmMSISZE18w7cQib7rLq9Pn78iDGtvsTzx5Em965YoyH6z1rH+S6dCMaSkV14X06UqFgV3n47+fCNP05g7sA2vE9EuyFTUb9tT70xSzt3rv2Bmb08VJd1912Crxu25jyjmlfCi6f/8L4lxFf1m6HNAF/kyl/I7GU7l03HvnXzzeIvW7UeBs3ZyHn3rJ6D3f6zeD8xxH/Gzcc3Hu350vFtq+LJg3DeVyNKf1kDQxdu5SxBAQuwY+mPvC8nFh4ORwa7jLrhZ//cx9jWX8lZdH36bNBnRNro8xjF1ty69BsunzyIK6cOIfZVtJTFKD0xMBT5i5Y0Omfu4K4VM7F3zVyj7PmcXTBp0wk+R38vo1u68b4lRMOO/dF6gI/BkpdRTxB+4xKunDyAS8eDQbrTmrIG0iQHAIqLicbyTuo3EGNH6hVwAxmzZtdNEfAhAKTWHPI6o8uys5zlwdXT2Da+Je8LRGoHQI2GL0PJmi2E4ybqGnH5OHb4eCqulQKgxL4/isITOZEjqyP2zL7KV1+78wd6zVK/CQX9fAPZ7BM+I8YAUMMqreHbfQmXmRgi9u1rNBjioro0OQDQ+RX2sM+UgIBi3nyEW6/UCYBqteiMTiNnc/3cungaP/U3/LvjDBKi8X+GoEXv0Xzk6LY12Piz2OcTnwiHXHkwa/dlPmwMAA1dsAWlv6rJeRJD3Au7gmldG6gutQYAssuUGXSjtQT4CIfa7T8be1b/LHRVr/8WAJQ1ey7M2HkB6TPYqeoj6tEDhPzqjwMblL8b5uy/AftP9x9VYSqTQQELGbCbZpRDDoDMAd1GBX0aJDBFMtVazKsXuHgsCOtneuPD+3dqrP/KuWQBQFH3byPQq4bFCu33SzjSZUhA/eZYX+zss6F3YBjf52n4dWwcUo/3BSK1A6BWU7ahYPnqwnHx4NppvHpq+mmaL2DE/csnVK1OUgCU2PdHup81aKfchbFlyhku6vzNk/CaKz5h8wkJYQoAdfyuPwa0Fp+MHj6LwOXbIkiWiFIkn0U/woItvorzNJEcACh0gT3y5kwAQB8+AGW7vlY9g60mCZAQMBHapE61EXn3ptBVvbbqNx6NfvDiPMHshrRt8WTelxNkBSBrgNCMAaAJa0NQsERZgQUP/vqTWWYe8b45xE1mWTJlXbEGAJq44TjyFymhdyR62Hv++CGinz3G6+goCCb5PAWL6N3gNACkpzbeIRDk9VMgirh+gTRpEv5++KSMuHv9Amb0dJeNJnQXHbnHgFQGPnf97DFOm0sc2rxMZ3Eyxi8HQOdCdmHFBNGKbGyN2liatGnRlVnlqnzXins4lPhfRz/Hj92/w9PIe0os/8rxZAFASkDElIa7r74E+xx5dWzmAKCcBUug06LjXOzfF45g16QOvC8QlgAgKRgx5wy0R1JdYPUHzEHZBh2F42L/z30Qdlw0+/OJJBBSAJTY9ycJ2xtdmjZtOoQuFk204Q9voeMk9Sf5Q/PvIJNdZp08YxagGhUbYlY/0cVy4Ox2TFzVz+j+SRlMDgD0y8TMqOSSlh+r5sAYPH4u3A75sE2JL2o3Rt/pq/kZ7t++jildDB86OIOMIBcKuVKE9vvBHfD37St0Da4EbAjgCM0YACKXGrnWhLZpzhgc2SqeURhP6jWpAEjuBiJXDVl09q2db/TpXO7m+DcBICkYUXOBSd/TzFkdUM+zB8pUro2CLq7I4pBDOs1psgJtNQK6Z//3CrLlzM35BtYrgndxb3k/qYQcAP0W9CtWTxmYVLGg79FqHu3gVtsDzqXKI3vu/EaBoKV/q0k+2GcgIFUBoHY/BSOvS0WutqXti+J93BvelxOF3eqhuc9GPnxp7yocWzGW9wVCCoCU3GQC7w9LTiKHU3FdN6UAUMUmPVC7p2g2PbF2Ms7vUDbVCme15JocAChLhvQo75jT4Bjx7Iv97D9PDMaNDUgBzfNXT9FkRDljbHzshN9DThsDQHlyOGHH9POcxxyrEme2gEgOADSwtR28WolPoKOXv8X20PcWnCr5Waf++htyFyjCN5rj1Qo3z5/ifVOEc8nyGLfmIGcz5T5zq9sUfab5c35jAKhZz5Fo0m0Y5zFlVeKMFhJJBUADf96ActXq813JVUIuE6XWzWcRqjYS3dpJAUAUl0LxKUlp8higCe2/weOIO2aJlIM/JRAiCFt6Qvw7NxcACWuFa7YcjvBgn4vaLbsg3ae4QZqLexOLQd8WE9j4deyqYBQuLd5/Jneuq7MmcoYkEskFgOTHIndgzeY/oHmvUbDPlhAuIPCM86yiWYEEZbBrqgJA7t7LUaJGc3687eNb4f5V5S/XKm2HomrHUZw/1H88Lu4RvyyFCenN35T7p3fgTdjZO+iWmguACpSrhtZTdwjb4Zj/OFzas5L3TRFOrlXR5kfR4nM9ZDMOLRxsaplF81IdWMsC1KNcScyt87XRczgsCTQ6Lh/cOu135M9ViA+rBROXK/YVlo/cw3mNASCalAZWP4p6gFZjv+RrrEUM8pyE9t/24eJajnFj1ppI3k8MUbZIWmyfmmDdovU7T7zHyKXWewJNzJmka1wqfo0Rfrv40LOHERjbpjLvm0PQjWjxUdEMTzEKwxqVVlwqv+kaA0AVqjfAgNnruQwKfF084gfetxbR3XcxC4IWA7AtCQKmM0zZfAp5Cok33v61CiI+nvk6Fdr4tYdQqIT4QGAJACpSphLGrNzPJZ/47wYETBdBIp+wgJAHm88d5Ikb50QLvJoo+c1fzf3j6OSMaVtEt3ViAZBwntxOhXXBx1IQNKCOs4HVTQ44SV+kN2s1uQ6sZQFSOh9ZhqZtPYuceQtwFrI40b62aE4FCqC/10BmsRKt3HSO4KAgHD1y2BZHSl0AqOr3I1GlnfhHGv5HCHZPEV1Dcg11W3kBWXLl58Pk/iI3mLxRoDQFTFNTCwB2LOKK7+eJb4S5AMghX2F0WSrGslzYtQzHV/vKj6HYt8ucFb033OLzFBPg36Ws7qx8MIlEagVAM/quQa1Kok9+ffAi+G2favTVynmVANDOGReQO7v4uRi6oAPOXD9iVGZiBzs06IuBbSby5QPmtMSFsNO8n1ji2posSJcuYfW9Rx/RYHhMYkVZfd241QeYib0Cl+vv0we/HxKBO58wQcw/eBsZM2fhXAuHf4+rp8W/Oz7BCDmvMQBET7lzgm7wZR/j4zGiaXm8evGMj1mDkMcvUfYaZbGZ237cdg658hXUsdMZ+9USb0xyGRQnRPFC0mYJAJIDTbLSkbUuKa1G047oPGYOF7F10SQc2OjH+2oExav4hT7gLHevnceMXo15X0rIgVZSARDJHr1iH4qWdePbUFYZyZW2um26ocOw6XyIMvwo089aLaUBEJ27aXdvNO3hzV+CJZ8hvshKRCP3xhgxeoyBtP1B+zB7hqh3A4ZkHEhVFqAsjk7o5i+6LwiArOtTBS8f639QSR9y91dc7Cus+KE0Php5omozfTecylThalSyLLWcvAWFKtTkfOYCoDQMaQ/YKp4x6v4tFgQuyuECVQj3Ef4oUb0p57h5bBuC5/bnfSWC3HXZCxQDpcGrtdQKgJzzumDTpBP86HHv3qLzlLqIeHyHjxFRyrkCVo7Zz1PmaUwJALlXbYsJXUXXAgVCt/f5Bu8/qGdBZM2cHbW/cMfeU5tJvGqrXr4BZg8QrQ6/hKzA/F8nqK4xZ3LlyEyoWeETAmILKBWeUuJt3eQ3ZAIX3h5i4LEl52vZdxzcO4uxD3SjmdCums41IZVDX9z0BS5txgAQzQ9btA2l3Kpz1utnj2L+kPa8r0SQS65A8TL4bf8WJRY+XtW9LbpNED9XpuKX+MJPBKWBkytIaGoWFHlgN62x9OYljaOhh6ohDUsa6Fg4izlXufvySeTfGO9p3AJsTB5Z/gQrDAFAOs/bWP1Af5qnEgtCCjzJUQNApdy+McsF+/Pe68iSPSc/ljELEIG0uQxIZ8qSjfNt/Gk0jm5fw/tKBLlqXzx5iL+u/K7Eogtol6bBJ8UCVLx8ZfzN0t3fv4tT3I8mvJjbtbzE7bp22mCc2mv6+01VaCInNQBkhuLkQOD921hs9m6IqAgx26vY143gMXo1C/QSTWmhq3xwcfdyozt888NYfNVmEJ978zIKv47ywIvIhJss1Qhq5L0MLtWacB4izAVAxEsWHLLkCI1qEp1ksTy0lzmN3G491l7lXxC05vFfl7Hnxy6GGWEs06FUrVao7DkEuZxLMYAYgbW91V0RqRUA0ev0896Fii7iFymBoClrvHDqaojuPahZsRF8ui1CurTpiZ03JQBEDIE+x1DUqRTnfRnzAmOWdsX5sFN8TCDItdaz2QhULlNbB7Bq9BOtRwKP/EpuO3LfCS2egfWFLHNsR+g60PkT29xKpsUmH9EN5rfzHeZtUf+SS+xelqyT37x/mT8BIb+ssEQE56Wb3PyDf+ll3FAG1PoZw3H1t8PI7pgXjbsMRi0WuyFvSgCIMoFm7b6klw1DNWrmD+1gEKdCN7p6bbrjO1ZLhdwD5oI5OQikIOYgVpeHsscorsRUo7otFNgsNLr5z+rbDPdvXROGQHEro/z3gdw28mYpABq57L+gG6XQSMeBs0bgz99DufsnnqUbqrnhhLV0Jb3NCw7Ts95RrZ3tftMQzrKrhPaBgS0COPI2dcsZvdf18G4YZvT2wJvXL3WsZB0jt500EJkmlACQU9FS8A08xkBUDM4e3I6drK7Qy+dP9balsgMUtF/267p8XK3+jludJujz40rOS8TV0yFYNq6HwXtMQdcUf1a9SQddTazLJw5g8cjOemulHWtagBYd+VvnSvqTuSBJ//duXpZupaPlJSfo8zqoflGrBnYbbKoyoAEgFeUIU3IrkDAeG/1UZwnKUaC4HtCgeTXrD81Tunyv9Tf0ABOBm5hn/+j++LPmLqA3R2uoWQKACIxU6zQ6YaHkf5IRL6m/ELrKF1eC1kg4RLJS016o1WOKOPCJesviJF49fYB0LCU4czZHXitJYPzcAZBLQVesHnvAAOAIr0/pqgaAijmVxnqfowZL38TF4iEruJiOgd7MGe2RM1tug33NAUAkeOmI3ahQXLQsCpt9iH+PD5TH/ql1nFwLkU/+Fromr9J0+NRQEJFS3mfuusQzS+iGM7hBcZOvQ43Bo+tQXZCmGo+xOSUARLxUX4i+9OWNzvuaWazSsRTnTOy7IGNmez0WcwEQLVIqlkc3fCmQmPqfbyEvDUAWiJk7L+kBP5JJsVR0c6LCkvYsc0kpldtSAEQgagoLWleSR3vTvv1qOhFpVqvfrhfaDTb8jpIuplRrCraVNwropjgbaSO9EWixy5hJz/Ii5VECQGS58wk4ImXVgZRXTB6BPcoCo4B9Am7SZgq8y129tJb0FPs6Gu/evmHFeT/oQJq89lDKAiD9lP33794hhpVQeM6sUHYZM+vqTBH4kzYCvvMGt5UOpSjt7tEE3iNHGeypucBkKnGuVBtNxwXwmkCyab1uzPNH2Da2JZ5H/qU3Lu/U7TMD5d27yof1+lRMkFxollaCJiHkBuvMMsgc8hXRkynvnFw3BX9sXywf5v3SdTxR32uuniWITyoQnzsAopdFgGXFqL0MlIixIfKXe/HWaVCWV4HcCTpWA0C0ltxmP3kFwtEhr1yUat9cAFQwT1Gsn3AUdp9qVykJ7eBbHfceqX8+pWt7NsmAER3s+FDL8bG4Hm74RM0ZkpmgLCwy8QvNVBVfgc/UlW6mbQdNVr1BH9m6CnWZtUZoagCIeL5t35tVWPbRswQJa5WulgAguunSDVJw5SjJpKKKVFxR3uRlAOTzQp9uuKf3/aJXedlSAESyyNXYos9YVR33rWHa4imci65yt4p0jujXL6Iw3MNVPqzrz2JA2oFZ+NQaZfFROrvgBrMEAKnJpTlz3JYUPEwB75UbtDQlTm/elgBI7yBGOqRDcldKQboRtmQdGjBwEFq18TTYY92a1aB/tmhWiwHque46MmVL8LFaI8sos4MjmvtuQp7iYtClVEFkWbl9ai+C5/RjiPyddEqRVrLS0IIIVkhw16T2aDYhkAMgqpzp19ZZUZ7BBHNNfdmyPwjEkKUqLTP1S910xH90+Whc3rfGYKl0gPTYeORKUHaZfL2U79WTBwg7sRNX9weYBIDWfn/oHF1cXbCoXjXpkThtbhYYX8AIssZ4fz8DFZg7TAAt79h7EBZxBYf/2I0NB5boKkdTBWlqdyNvotPk2jpa6T/6MqOMrdZ1uhpYeqRrYt68wvHLwdgVGmDUTSblldIUN9S7xWjUYm46x+x5je5haYZYehYCdHapWBX6fNgHdJj8RrptitEUrExuD+Epmp40yfpjraqyVLG4df/xyFuIWXY/PbFS7ZXIOzdweMtKXZAxxW8I7UzwVqyaNEDoGr1md8yn+xmIAqwWjJr1g27UV04dxMFNy4yCFaPC2SC5qb73nqmL56EAbEE3Un61DDF6zT0m+inWqSFA5je6q666MVW5Fpopy4XAJ79S4HqXsXORp2BR/vMlUh5LARCtrd70ezTuPAg5mAtRACqCTDUARLzDl+xEUVa0UN4I9FHWFblCpT+F8c+92/DtUEPOrrMYUSFAyk6Uu83kzOT2+nWBD86F7JZPKfZLVKrKSjCsNCmbLF6UDEBFEMnypNRy5HHCjB1ijGtSYoAI5LvVawrH/M6qn3FyzQZvWMzqTc0x6pZUOmtyjK9aG4DCRfQNBHFxcWjq3pABM9s84FkNACWHwkgmPWnlLfGFLog5PXNZxEY/wYPrZ0Agi9klLd42U9YccCpbFflKfokPLIAs7vUL3Dm7H9GP7lksKyUWZHcqhvzsrDmdS+qsU7HRz/D8wV94cucKYp4r/7GlxNmScw+yqpC15/7ju3rbHFscwUFG6MUgjF7aVW9erZPLIQ9ci7rBtcgX+MAsfW+ZOyzi0R3cibxhkYVGbQ9rzXnWSY9pPTNycbayAnUaMUsvFsca6dT8RckIcrVlYK4QabVaef2Y7X5TsX+9vhtFJkavS4UUSQZZbj4y10U0+62kh+FhuH3pjEEWkN7CFOhQAK8L+x0rSnUnQPmUBRWfP7pXF9yaAtvbdAuK3yEgSCnvFEvzkFUSD90ZgJiXLxJ1LgpcpmDffIVLMLdXYRbn8obVkIsDFf+jn5yg6uCJbXQPcqlQGSW/qK6rgE6f0UcMlEWyGCaySAoxTImVn5R19IDn+jUr/FjcFblZ5XBq9NBM7tcIZoEMu/ibzYGP8Pr2HzrMQg/Y052k2dL6Q8dI9QBIoiuN/JdrIF+ugtg27RzXQsD+hVi6Yxrv/78Rh+faM3dfGt3Lung7Hu0mmg60taYO6Mt1QchdHrNC8RpD3Uun6Be+vMjhAhbUfO3MEWu+TE2WpgFNA8msgbLlymHBYj+9Xd68eYNmHu42BWgaANJ7S7ROatbAtN7+qOsmxqKM9OuCE5eCU/ORk3S2KmXSgdLiqcW9S/h1+LfmeXuTtK+wmOJHKGVdaBdDg3SuGaGfElf5r84PYwDMnF/2TomzaXtoGtA0YJ4GBg8dhmYt9GOq/Jcvw6YNgeYJSCYuDQAlk2I1seZrgCwN+9mvvJ/98xioECL9Kry8dWsyHD2bjuDDkSyTy3O8YaYJZ9CIJGuAXBP0u0pCu3EuNNEuCkGGcKXf7uo5eRkunzyAXctnguI8pI1cGoPnbUaxsl/yYVNBppxRIzQNaBpIVRpYExCIQs5iPG3M69do3qSxzc+oASCbvwXaAai+D8X2CI0CkqkQ4v3H4cjlkBvFC7gim312YVp3tVblZT2hWifFNFCnVVcWSDyD70c/ifHiyT+6INJcLLA2V/5CeplWVMjPu0k5qwEwvrFGaBrQNJDsGjgQckQvWWDR/HnYsX1bsu9ragMNAJnSkDaf7BqQAyC1Dang4Oo9c7Bqz09qbNpcKteAHACpHZcyzwKmDzWrWrOaHG1O04CmgZTXgJ2dHfyW+yNjxows+SQeUVHPMMRLPZMzpU6pAaCU0rS2j6IGyAW2eNh2lClcSbWmDlmFRi3pgrsPwxRlaROfhwYodZlSwakSs1qqOmXwLPLupKst83m8Mu2UmgY0DXwuGtAA0OfyTv1LzumctziKs8rQeVkKPKWt0y+s/xl+UVcLiGoCae3/SwNUQ4d+w6sgS1MnMESVkCllOezCaV1tHmM/qfD/pQHt1Wga0DRgKw1oAMhWmtf21TSgaUDTgKYBTQOaBmymAQ0A2Uz12saaBjQNaBrQNKBpQNOArTSgASBbaV7bV9OApgFNA5oGNA1oGrCZBjQAZDPVaxtrGtA0oGlA04CmAU0DttKABoBspXltX00DmgY0DWga0DSgacBmGtAAkM1Ur22saUDTgKYBTQOaBjQN2EoD/wMDNWrxB2em5AAAAABJRU5ErkJggg==;" vertex="1" parent="1">
                    <mxGeometry x="110" y="160" width="221.55" height="20" as="geometry"/>
                </mxCell>
                <mxCell id="5" value="" style="shape=image;verticalLabelPosition=bottom;labelBackgroundColor=#ffffff;verticalAlign=top;aspect=fixed;imageAspect=0;image=data:image/png,iVBORw0KGgoAAAANSUhEUgAAAjQAAAAyCAYAAABLTUE3AAAMTGlDQ1BJQ0MgUHJvZmlsZQAASImVlwdcU1cXwO8bmSSsQARkhL1EkRlARggrgoBMQVRCEkgYMSYEETelVMG6RRTUilZFFK0DkDpR6ywK7jqKWlQqtVjFhcp3M0Brv/H7Tn73vX/OPffcc07ufXkXAL1avkyWj+oDUCAtlCdEhrImpaWzSI8AAj804A5s+AKFjBMfHwOgDN3/Lq+uQ1soV9xUvv7Z/1/FQChSCABA4iFnCRWCAsgHAMBLBTJ5IQBENtTbziyUqTgDspEcBghZpuIcDZepOEvD1WqbpAQu5F0AkGl8vjwHAN0WqGcVCXKgH92bkN2lQokUAD0y5CCBmC+EHAV5VEHBdBVDO+CU9ZmfnL/5zBr2yefnDLMmF7WQwyQKWT5/1v9Zjv8tBfnKoTkcYKOJ5VEJqpxh3W7mTY9WMQ1yrzQrNg6yIeQ3EqHaHjJKFSujkjX2qLlAwYU1A0zI7kJ+WDRkc8gR0vzYGK0+K1sSwYMMVwhaLCnkJWnHLhIpwhO1Pmvl0xPihjhbzuVoxzby5ep5VfanlHnJHK3/m2IRb8j/yxJxUipkKgAYtUiSEgtZF7KRIi8xWmOD2ZSIubFDNnJlgip+O8hskTQyVOMfy8iWRyRo7WUFiqF8sXKxhBer5epCcVKUpj7YTgFfHb8J5CaRlJM85EekmBQzlItQFBauyR1rF0mTtfli92SFoQnasX2y/HitPU4W5Ueq9DaQzRRFidqx+LhCuCA1/vEYWWF8kiZOPDOXPz5eEw9eBGIAF4QBFlDClgWmg1wgae9t7oXfND0RgA/kIAeIgJtWMzQiVd0jhddEUAL+gCQCiuFxoepeESiC+g/DWs3VDWSre4vUI/LAI8gFIBrkw+9K9Sjp8Gwp4DeokfxjdgGMNR82Vd8/dRyoidFqlEN+WXpDlsRwYhgxihhBdMbN8CA8AI+B1xDYPHA27jcU7Sd7wiNCB+EB4Rqhi3BrmqRU/kUsE0AX9B+hzTjr84xxB+jTGw/FA6F36Bln4mbADfeC83DwYDizN9RytXGrcmf9mzyHM/is5lo7ijsFpYyghFCcvhyp66LrPexFVdHP66OJNWu4qtzhni/n535WZyG8R39piS3C9mNnsBPYOeww1gxY2DGsBbuIHVHx8Br6Tb2GhmZLUMeTB/1I/jEfXzunqpIK9wb3Hvf32j5QKCpWPR8Bd7psllySIy5kceCTX8TiSQWjR7E83D08AFD9j2geUy+Y6v8HhHn+k650CwCBQYODg4c/6aK7AdjfB7f53U86J7h3dTsBOLtaoJQXaXS46kKATwM9uKNMgSWwBU4wIw/gAwJACAgH40EcSAJpYCqssxiuZzmYCeaAhaAcVILlYA1YDzaBLWAH2A32gWZwGJwAP4EL4DK4Bm7D9dMNnoI+8AoMIAhCQugIAzFFrBB7xBXxQNhIEBKOxCAJSBqSieQgUkSJzEG+QiqRlch6ZDNSj/yAHEJOIOeQDuQWch/pQf5C3qEYSkONUAvUAR2DslEOGo0moVPQHHQGWoKWoUvRarQO3YU2oSfQC+g1tAt9ivZjANPBmJg15oaxMS4Wh6Vj2Zgcm4dVYFVYHdaItcJf+grWhfVib3EizsBZuBtcw1F4Mi7AZ+Dz8CX4enwH3oSfwq/g9/E+/COBTjAnuBL8CTzCJEIOYSahnFBF2EY4SDgNd1M34RWRSGQSHYm+cDemEXOJs4lLiBuIe4jHiR3Eh8R+EolkSnIlBZLiSHxSIamctI60i3SM1EnqJr0h65CtyB7kCHI6WUouJVeRd5KPkjvJj8kDFH2KPcWfEkcRUmZRllG2UloplyjdlAGqAdWRGkhNouZSF1KrqY3U09Q71Bc6Ojo2On46E3UkOgt0qnX26pzVua/zlmZIc6FxaRk0JW0pbTvtOO0W7QWdTnegh9DT6YX0pfR6+kn6PfobXYbuaF2erlB3vm6NbpNup+4zPYqevR5Hb6peiV6V3n69S3q9+hR9B32uPl9/nn6N/iH9G/r9BgyDsQZxBgUGSwx2GpwzeGJIMnQwDDcUGpYZbjE8afiQgTFsGVyGgPEVYyvjNKPbiGjkaMQzyjWqNNpt1G7UZ2xo7GWcYlxsXGN8xLiLiTEdmDxmPnMZcx/zOvPdCIsRnBGiEYtHNI7oHPHaZKRJiInIpMJkj8k1k3emLNNw0zzTFabNpnfNcDMXs4lmM802mp026x1pNDJgpGBkxch9I38xR81dzBPMZ5tvMb9o3m9haRFpIbNYZ3HSoteSaRlimWu52vKoZY8VwyrISmK12uqY1e8sYxaHlc+qZp1i9VmbW0dZK603W7dbD9g42iTblNrssblrS7Vl22bbrrZts+2zs7KbYDfHrsHuF3uKPdtebL/W/oz9awdHh1SHbxyaHZ44mjjyHEscGxzvONGdgp1mONU5XXUmOrOd85w3OF92QV28XcQuNS6XXFFXH1eJ6wbXjlGEUX6jpKPqRt1wo7lx3IrcGtzuj2aOjhldOrp59LMxdmPSx6wYc2bMR3dv93z3re63xxqOHT+2dGzr2L88XDwEHjUeVz3pnhGe8z1bPJ97uXqJvDZ63fRmeE/w/sa7zfuDj6+P3KfRp8fXzjfTt9b3BtuIHc9ewj7rR/AL9Zvvd9jvrb+Pf6H/Pv8/A9wC8gJ2BjwZ5zhONG7ruIeBNoH8wM2BXUGsoMyg74K6gq2D+cF1wQ9CbEOEIdtCHnOcObmcXZxnoe6h8tCDoa+5/ty53ONhWFhkWEVYe7hheHL4+vB7ETYRORENEX2R3pGzI49HEaKio1ZE3eBZ8AS8el7feN/xc8efiqZFJ0avj34Q4xIjj2mdgE4YP2HVhDux9rHS2OY4EMeLWxV3N94xfkb8jxOJE+Mn1kx8lDA2YU7CmURG4rTEnYmvkkKTliXdTnZKVia3peilZKTUp7xODUtdmdo1acykuZMupJmlSdJa0knpKenb0vsnh09eM7k7wzujPOP6FMcpxVPOTTWbmj/1yDS9afxp+zMJmamZOzPf8+P4dfz+LF5WbVafgCtYK3gqDBGuFvaIAkUrRY+zA7NXZj/JCcxZldMjDhZXiXslXMl6yfPcqNxNua/z4vK25w3mp+bvKSAXZBYckhpK86SnpltOL57eIXOVlcu6ZvjPWDOjTx4t36ZAFFMULYVG8IX9otJJ+bXyflFQUU3Rm5kpM/cXGxRLiy/Ocpm1eNbjkoiS72fjswWz2+ZYz1k45/5cztzN85B5WfPa5tvOL5vfvSBywY6F1IV5C38udS9dWfryq9SvWsssyhaUPfw68uuGct1yefmNbwK+2bQIXyRZ1L7Yc/G6xR8rhBXnK90rqyrfLxEsOf/t2G+rvx1cmr20fZnPso3Liculy6+vCF6xY6XBypKVD1dNWNW0mrW6YvXLNdPWnKvyqtq0lrpWubarOqa6ZZ3duuXr3q8Xr79WE1qzp9a8dnHt6w3CDZ0bQzY2brLYVLnp3XeS725ujtzcVOdQV7WFuKVoy6OtKVvPfM/+vn6b2bbKbR+2S7d37UjYcaret75+p/nOZQ1og7KhZ1fGrsu7w3a3NLo1bt7D3FO5F+xV7v39h8wfru+L3te2n72/8YD9gdqDjIMVTUjTrKa+ZnFzV0taS8eh8YfaWgNaD/44+sfth60P1xwxPrLsKPVo2dHBYyXH+o/LjveeyDnxsG1a2+2Tk05ePTXxVPvp6NNnf4r46eQZzpljZwPPHj7nf+7Qefb55gs+F5ouel88+LP3zwfbfdqbLvlearnsd7m1Y1zH0c7gzhNXwq78dJV39cK12Gsd15Ov37yRcaPrpvDmk1v5t57/UvTLwO0Fdwh3Ku7q3626Z36v7lfnX/d0+XQduR92/+KDxAe3HwoePv1N8dv77rJH9EdVj60e1z/xeHK4J6Ln8u+Tf+9+Kns60Fv+h8Eftc+cnh34M+TPi32T+rqfy58P/rXkhemL7S+9Xrb1x/ffe1XwauB1xRvTNzvest+eeZf67vHAzPek99UfnD+0foz+eGewYHBQxpfz1a8CGGxodjYAf20HgJ4GAOMyfH+YrDnnqQXRnE3VBP4Ta86CavEBoBHeVK/r3OMA7IXNATY6bKpX9aQQgHp6DjetKLI9PTS+aPDEQ3gzOPjCAgBSKwAf5IODAxsGBz9shcHeAuD4DM35UiVEeDb4zktFncziBeAL+ReNwIDwBJf5WwAAAIplWElmTU0AKgAAAAgABAEaAAUAAAABAAAAPgEbAAUAAAABAAAARgEoAAMAAAABAAIAAIdpAAQAAAABAAAATgAAAAAAAACQAAAAAQAAAJAAAAABAAOShgAHAAAAEgAAAHigAgAEAAAAAQAAAjSgAwAEAAAAAQAAADIAAAAAQVNDSUkAAABTY3JlZW5zaG90mmuxmwAAAAlwSFlzAAAWJQAAFiUBSVIk8AAAAdVpVFh0WE1MOmNvbS5hZG9iZS54bXAAAAAAADx4OnhtcG1ldGEgeG1sbnM6eD0iYWRvYmU6bnM6bWV0YS8iIHg6eG1wdGs9IlhNUCBDb3JlIDUuNC4wIj4KICAgPHJkZjpSREYgeG1sbnM6cmRmPSJodHRwOi8vd3d3LnczLm9yZy8xOTk5LzAyLzIyLXJkZi1zeW50YXgtbnMjIj4KICAgICAgPHJkZjpEZXNjcmlwdGlvbiByZGY6YWJvdXQ9IiIKICAgICAgICAgICAgeG1sbnM6ZXhpZj0iaHR0cDovL25zLmFkb2JlLmNvbS9leGlmLzEuMC8iPgogICAgICAgICA8ZXhpZjpQaXhlbFhEaW1lbnNpb24+NTY0PC9leGlmOlBpeGVsWERpbWVuc2lvbj4KICAgICAgICAgPGV4aWY6VXNlckNvbW1lbnQ+U2NyZWVuc2hvdDwvZXhpZjpVc2VyQ29tbWVudD4KICAgICAgICAgPGV4aWY6UGl4ZWxZRGltZW5zaW9uPjUwPC9leGlmOlBpeGVsWURpbWVuc2lvbj4KICAgICAgPC9yZGY6RGVzY3JpcHRpb24+CiAgIDwvcmRmOlJERj4KPC94OnhtcG1ldGE+ClniuxoAAAAcaURPVAAAAAIAAAAAAAAAGQAAACgAAAAZAAAAGQAAFlq3X6ZRAAAWJklEQVR4AexdB3wNWRf/RxAi0TvRa6JHF3UJVvTey+qdTwtCBKsHWay62mezq1ttP12yeokahCAiRFs1QkR890x27puZ917eCy+S2Hv8/Oace88tc+5k5j/nnDvPyj5Tjk8QJCyQSBaoWrGMNPLFwOBEmoEYVlhAWEBYQFjgW7CAlQA038IyJt9zEIAm+a6dmLmwgLCAsEBSsoAANElpNf6Fc5EBzb/w1MUpCwsICwgLCAtY0AIC0FjQmKKr+FtAAJr420y0EBYQFhAWEBbQt4AANPo2ESVf0QI2GXN+xdG+3aHevwj/dk9OnJmwgLCAsIAZFhCAxgwjCZWEs4AANJaxrQA0lrGj6EVYQFgg+VpAAJrku3bfxMwFoLHMMgpAYxk7il6EBYQFkq8FBKBJvmv3TcxcABrLLKO5gCZ3Viu4lLaWBn364hMOBXy0zAREL8ICwgLCAolsAQFoEnkB/u3DC0BjmSvAXECz88e0KOaQQhr0WkgMWkyMtMwERC/CAsICwgKJbAEBaBJ5Af7twwtAY5krwBxAU9/ZGouHp+EDtvWMxKXgGC4bYqxTpsKg2etUVRvmjMGzh6G8LGWq1Bg4ay2XiVkxqR8i37xSlQlBWEBYIGlaoHCZymjSYwSfXGTEG6zw6MNlYvR1XjOdviqdxBYEoEnsFfiXjy8AjWUuAFOAxsoKOLnEFhntGMPoyp0YtJ5k2jtjkzYdFh5Qf8XZe3BLBAWc4BNPk84eC/bd5DIxcwc0x61Lp1Rlnyu06D8BTlXq8ObLJvTG0wchXBaMsICwwJdZoF67Pmg3bCrv5FNMDAbUzM1lYr5r3xdth3rxspiP0RhYKy+XkwIjAI0FViFzvuJwHb6Y93RsrRdCL/pxWTDGLSAAjc42Q5u5o1SBclLBg2eh8NwwSldpgjMFaHo3SYXRHVLzXlqyUFMgCzmZosQGNLb2GTBvzzVYpYgNk0W9i8SwBoVBN1xBX8cCBRzLo7fXMj7YtiVTce7QTi4LJvlbQACa5L+GFjuDPE7V0HLaNt7f4SWjcHX/f7ksGOMWEIBGZ5vVI7Yif/ZCUsHryFdo7lVLV2mCMwVoTv2s886EhMfAdbRp7wwNmdiApqfHT6jSqC0/+/2+P2PLoilcFkzCW6BszUYYMHMNH2jHshnYu24hlwWT/C0gAE3yX0OLnYEANJ9vSgFodLZLKEBT3ckaq8fpcmdmbIjCmj8/6AaOg0tMQEO5ORTuojweoo/RHzCsfmFEf4iKY8aiytIWEIDG0hZNev0JQJP01iTRZiQAzeebXgAane0SCtBsmJgGFYvHbtWO+QQ4932Lt+8YYwYlJqBpPXgyGnQcwGd56s9NWD11CJcF83UsIADN17FzYo4iAE1iWj+JjS0AzecviAA0OtslBKCxS2uFc8tt+SABNz+ig9c7LptiEgvQUM7Mwv3BSJ0mrTRFypn5z/cl8fb1S1NTFvUWtoAANBY2aBLsTgAazaIUrtoENnYZpNLwoHP4+94NibfPlhfOrQYjSwEn2GXJhaiIV3jx8DaC/LYh+ORuTS9qMbVteuQrVxu5SlRC9qLlkcY+E948fYBHN8/j4bXTLPHWHzEfTbvOC1ZuhJSpbaTOqd2bZw/VAymk7EXKIkPOAlJJTHS03hxtM2ZDgYoNFC2AzA7FUK5Zf14W5L8N9y/5c1nJhF09gZcP7yiLDPKpbe2Rp1R15CpZBTmLVoB99rx4GR6C8Btn8SDwJO5dOAJ8Mu8tmwZIiPUxOPF4FhKgaeTcHCmsYpM+g8Nv4Mb9QOTMlBs1HOuiaolayJPFAbfDgxAQfAYnrvuBEmbjQzky5oJzkapwyl8WxfM6sqZWCHt2D4H3LuHSnfO4Fno5Pt1JuoVyFkXjii2QN2t+aa5pUqfFy4jnePbqCe4+vo39Abtw95F6d5BykMrFXZDVPpuyCL0bDUXGdJmksqjo9/DZMVNVLwsR79/g6OX9sigdjeXQNKmaEt6DYq99Upz7exRW7DL9NyN3nliAxrXTQLQaNEmeBq6cPIRF/+nEZXMYAkVOVeqiSNmqyF+iLHLkKwwKY7189ghPw+7ixJ6NuHRsnzldwalqXeQt4iTpPr5/FwFHdkl8Wrv0aNFvPAqVckaGLDnwif17/ugBbpw/hp0rZ5sMj2XLWxBlariiaNkqyFO4JGxs7fCEze32lbO4zOam3E1maqKZc+RB7VY94VCsFDJmzQm7jFnY/TEaj0JvI+T6RdwMOI5rZ/zinBP1UalBS9VQuQuVQJWGbXgZ9XH9rB+XlQytU9itQGWRQZ7CiKWqfYcSFWuiQMlyyJIrH95FvMZ91jaIzfP0vi0mwWueIo6S3WiAiFcvcGa/Lo9RO2gqdv+v0VR3/QRfOoPQm1e0anpyte/bgwBdllwOyJA5O7t1WEnzevX3Y4Rcu4DDm1fh70dheu3iKqDtz46V67BrpiJyFSjKbuOf8PBuEG5dPIVzB/9g62X8vqHtl/4+67TuyYuP7/LF6xfPJJnsSx5OmjvtRIx49Zxd9yHYu3ah3g5EAWi4CWOZfr7BSJUmnSQ8C7kG3+F1UX+oD0rUbafR1IkETtb0qaArUHD5ytVBk/FrYZ1KdzNWVEvs2xePsXV8CwkgaeuU8sDN95HCOqVUFHrxKHZ4tldWq/jmnr/DoWxtqezTpxgsbpVbVV+wckM0cV+rKouPcHzdVJzfptsRZahtUZcWaDB8EZ+zIZ3nYcHY7tEKEc8fGarWK7P0+ugN8JkFBGgOzbjAWx+5tA8X75zFsObjeZmW+Xn3PGz6a7222KDcpV4f9GowyGCdXHjh9llMWDsUkVFv5SKjRwJaE9rPkMCRUaV/Kt6+j0D3ec3x7PVTPVXfsXtBQOtz6P2Hd2g8qaqqqTFAM2+gDdyqxV771KCVRySu3jV/h1BiARrvP2+AdjjJNKFNJdW3b+RyY0famTNk7q9IlyEWIBrTI4/P9qU/wm973H/TE1bvZ0ChtNQNPYAGuORC427D0KzPWL4DSzsG5fzM7PM9QoP0ATOBrR8mL0HF+i20zVTyjXN/wWdkRyl/SFWhEBp2GQzXzoORLn1GRalh9n1kBOYPbYO7gQEGFegB3n3CQoN15hSak7RND/Kh3r7SQ9ZYn5QntWx8L1w+fsCYCrq6e6OGmw6keLSvhif3Db8sEnCc+vsJ3tep/23Gaq/BXNYyzvWaotOo2SavH2pH32Si69MU2WXIjP8s2c5ATDGjqnRt7V27AH+smGVUR1mRw6Ewpvx2jBed2LsRW37yxPhf9iFzTuNbqgNPH4HPiA68nQA03BSxjPaBSWAlv/N3Gi21aAgwkEb17pNQocVAtbIRifo4sGAIbvhtMaIBqAGNHwM0xkFWYgIaAm+NRi0DeZTMIbph7vTqiPuX/zKpbsn1MTlYPBS0gIZAgK1NLDCOq5u9Z7djzhZPoyqpU9pgXu/lZgEP6iTi3RsMWdo9Tq9KujR2+HXMHtinTW90XG1FNwZo7j8N0RbjawEafx9bZM9kJY1P+TOO3SPi49hLlF1O1Rq3Q/eJPtxmd66ew6y+TbhsiunmPh/V3TqaUuP1929dxbTucd+rtIBmz5r5aNJzJO/DGPPzuB646P+nqjpn/iIYuWgb0mdWe+hUSgqBQNf0nvWNArqxK/agoKPhF0NFN5ylh+ZWtvV6/69LeJnMJDSgoW+d1G3bmzk6Yq9JeVxjx0MbV2DjQg+D1V3GzYNL0868zrOTC8JDbnFZycQH0JD3ZAgDXObOke7Dg2o7KIfT4yt+1xw9PBYxD2Fsgruegqbg3o1L+LGXq6ZUX9QCGvIclqxUO06wSL08f/wA7i1114wANBrbKh+Y5OaUPSKkRvLrx6F4xf5T6MQ+m4O0c8EQoMlZzBltZu1W9f7+zUsWYjmM1wwkZc5blHlQaqk8N9T/ym6OiHr7StVOFiwJaNLYZYRLLy/V+VHIKWvBUvJweHrnCv4ODeKykrmybx0eXD2pLOK868ifUaym2t1L4bn77Js2r57cR9b8jihQyRWp09rxNlGRb7CqW8k43+BI2VLrwwe2EKMFNMpug8ICQd4TAidVitdArszqNw73NYNx6oZhMNe74RB0qvODsjsGLO7h/K2TiI6JRtHcJVC6gO4PmhTDWCir69ymqjZKwb3dNDQo78aL6Po9fs2Pha3OSYAod5a8KJCjMMoVqsRBmTFAQ2E2CoMpqV7ZhuwmGht6+xjzEeStMkQvIv7G4l1zVFXGPDQ31uvAYdjTT6g3wrQXStmxIQ/N7H5uUkhE1rP0h/Vmbg9Axmw679X0HvXNCg/QfBp1HQL6EJ+S6P7w8O5N3GOekqjItyx05IgcDFTQGzNRfAENtaGcHvnbOAQQ6KvIz1nowSadnRR6ohAHkSFAo/U+kd6D29elsFDU+0g4FC2Fgk7OqgdqWPA1TO1Wl1T1SAloaF700cGnzGtAYQx62OZwKMRCO7V4PpLcwfSeDfS8RwSyujEPjbW1tawGAgNZWUhIpqcP7xn1hBzetMpoGI9CIx1GzpC7kY70XaHgy6elUFO23Pmlr9HaZ8qq0tFeb3JlQgGaeXuvq7xd5C26cuKgdJ3EfPwICsFR+DJvYUfpGjAFaMh2UzedUq0nrdOdwPPM/lfY/dwWBUuWR04WflISAc4ti72URXq8FtAor0tSjv7wAS+fhkvhPPqbsmVePAJqpgAN/c1oP5qn/bCeqfPWm+xXKLDYh/WUD0zlvM9snIdTvuqbbwrrVKjScTRKN+6B5Z3V7rcO3gf0wMGmsU3w8cN73m06lovTcf4hKadGLrzy5xocWTZOFlVHSwIaVcf/CJZICs7EgFrnn/x59/Sw9FsxHpf3ruFlxKS0SYtmHr7I7aR7GF7cvRL+Kyeq9LSCpdZH2++XysYAzdI987HRf62q+0kdZ6NOGd1bSwjLVek5v5VKhwQb5unaOfkvpGTXmUxbjm3QAwEVi1bDrJ6LOYgg3XGrB+F0kM6FK7en4y7PYxyoEOD4YUEb3Hti2MVdt0xDtHXpirFrBuH125fKbozylk4KzsC+CnyafX9GpoBbMegwxbzvz8ht6KFNb5cy0QNI63HQ6pAuhQooJyK+5MhyXigcIVM4AyKenWvKYpxHAlZzdweq3oLp4TunX1Mpb0bbuHbLHmjLPAbhIUHx8tAo+6E3ae8hrfXOld54m/d1x5Kx3UBhI5la9B/PQNdQWcSHqPdSaIUemEoiUEPhiTQsp0Ym+hS9oQ/aDVuwkXloysN/x3rsXDUHtEZaojUa6v0be3vXfduI8nPoq8+myBJJwZQzs2D/LchAj8akfJulzIOl3Ybfecwc1GzelU/rxZOHGNeiPJdlJiEADXnPPH/VrRfl5oxv5QwK1WmJwH7zfu6S7ePyICq9e9QH5dx4D2rJQOc9VZfkmew2foEOKDPQM6ZpaZ4To1L+R9ACGlmHwMa6GSNBOwOVlCl7LvaRxOVIZ59R9XdF+V/FKlTnqpRrQ4BLSQSIipbTPXcM6Sj1E4NPUECzjeV4hF05bvZ55ShWAW1n7eH60extZVmnIuxt6CMvkxlKMO6xUhcHjvXSlGReGv2baHIANFogd3S5OwMzq+XTVR0JEPZedxWUNE1E4Gdp+4Iq0KdqwARDgCa+66Pt0xKyIUBzLPAIPNYPN9j9Rvd9yJo+O68bsLiTlETMCxij9c5cvnsew5b1Uqpw3q1ya4xs6cFlY14a6xTW2D/9HNe7HnoFA5d04bIlGEsDGvoRSvoxSpkOs1/W7u/9ThaT5HGK7zHp7VeeHMX5Kd5vDg1kvzlFCbYymZPbQEm9JZxrIuCo2iss9yEftQ8lKo/vNnIaa96eQO7dJc/ObBZK0z445DEpkdl91f9kEa+ePcaYZmW4LDMEVujN3BRRQjSBCjoS0dv74DoOpppJSbFf+mE9elBXb9KBj3WXJdTO7G08tE45IPmK6851lecAvaTfhAA0tVp0R6fRuvyVo9vWwHfuOD7v+DKlq9fHoDn/5c3eMw/haDcng6CTlCgn63vFbypdOLoHS1kukTEyBGhoXT3aVWZemIfGmn2z5QkGaCissnVi3AlvWqvWZKGcsk378uK4vC6k1G7uPmQvrLvo98zsidun9vL2MpPUAU26TDnQ85eL8nSlXVDrB1bjsiGmVMNuqNN/Nq/aNrElaAeVMdICms9ZH2N9f0m5IUBDQIEAgyHqUrc3erkO5lXbT/wOnz/UbmwlMCDFMb8MwNmbhm1DQGWv10mVN6fBBGeQB0ZJKVlS+b5pZ3kRJeZ+P7matEOBF34ho5y3Jb4UXLOMNVaOTsNntdU/Gu7LdZ5OXpFEGHqA0YNMJmNv5nK99rjoSKjKO0PJr0rviFY/PrIW0JBXgT7yR2/C5pJbr1Fw+2EUV6d8B/pdqrhIFU5iAGhgrTxmgRdjfXqsOyztppLr+9fIKbNGj5bw0PgcvMNDXgTkRjYqHuePl9LOnOmbz/A5nd63Fb9MGchlYhIC0Lg064IuY+fyceIK9XGlOJhxK/aCEtRlWsl+tPXswR2yaPC48MBtlrsW61nVhoa0DQwBGnMSs7X9fCtyggGaX4fV5lu3zTWW24T1qi3RGwa74HmY4SQv6tPJtSvqDtCFs46vn4bzWxfpDZfUAQ0lTzeduIHPm/Jmzm3xUYVC5Eo5xyJthiyo2tldLpbCehTeM0ZaQPM562Os7y8p1wIaSgp286xhtMv0thnY7q6jvJ7CQxQmUtKOSX48cZe2PzfyqKKs1uOnd/dBNbY9XCZjeS+7pxxH2tSxNxrS3XlqM5bsngsCN5YgSwOahpVSwmeoDZ/ahgMf4LU2istJjVE+vGlutAuFdqOYQ/S9GnpoymTqQSDrmXvUApojW37Bb97jzW0u6ZGXg8CBTBS6o+3ZMimTUOW/8zIurlI+jaxjLJ9ErqcjeWByFSwu5XpQ/oZVCl0CbhXX1lJOjKxPoMxQOEWup+OXApoU7KVhiX8Y75K86bSzjDxLMsnnLp83lSt3kD26F4zJHdX3hYQANLQDafIGP3la0nGTz2Qc/H2ZqsxcYfbOy6rk7+1Lp6teguTzpv7kc6dwpZxHZCiXRTm2FtAQwB5StwBiNC9kyjbfMp8ggMZQsq85Ruy08Cjohx5lWtImr5RQLMvaozZ3JfCgLw4tGqFVs+guJ73OWYF2HvH9LaeKbYapwImhMUyVhZw7iJ3TOhtVUwKaz10fo51/QYUW0BgL+SiHOPjjef7HTzksPbxbKquhrH/8MhwdZuoeIirFf4RBbqPRuobOdhPXDWfJvkf0VL26eMPFqZ6qnGx5h31v5vytU5IX6PLdALO2f6s6+UewNKCpUMwavh46D82ek9EYsThpemjowTtt82luFtrZQ2/x5lJxZxeM8NGBH/LMkIfGUqQFNEvde+KCn743OK7xPDf46yV+xqVvqI6289IOKy0RaGjcfTj77kh/kztclG3HNitrML9IqfOlgEYbOlP2bS5PeUFDvyuoUk8IQEMD0M9tUH6MkggoEKii7wtdPrZfOprjnVt8NJT/dIeyv/jwlD9E3kpDpAU08fVqGuozOZf9HwAA//8lguQMAAAYPUlEQVTtXQdcFUcT/6sREASxBww27N1Yoyb2qNi7UaMxFsSuQYINFRVNNJYoKopgiT1i75HYNSbGLp9dLBgrSAfbd3Pk9u7du/fePXgikNvfT292Z3Zub+7e7f9mZpds9nkLv4MFivv6W8hpY8drSo6PxrJeZczWOnDNNVjnzsP3e/vmNRZ3+cSoDodCLugT8CeTibhyGiETO7C6QAz59QGy5/iIr96/cBTbp3QTWHrH9lM2wqVqQ7793bu38O/krCcjbyhS8TN0nL6VNf++2BNXDv7C6qaIFt8FoHSD9qbEjPIfXDqObT5dDMpY4v4YVJ4GhrXjxwideZ5puBJ+AcOX9mV1JWKv72lY57ThWTEJ0Wjv+wUTs7fNg+2TjrD69YdXMXhRT1ZXIro06I0hrT0Za9ne+dhwdCWrC4SdTW5sGncAuaxshSbFY/iT29jI9d93doci31Bj8OgQFCtUkmfLr8tQH6E9KeofgWTHIgWyIXSeONbTV9+g78xExs9IxIi561GhTmM2pC3+vji4bjGrmyJa9RmJ9u7jmNixbauxdrYXq6eVmBB8EC5lKjM14zpWR+STR6yuhpi7/xps/32/qZFXktm3ZiG2LZ2hw3IpXQley3Yjp5W1TruayvhONfDi8UOjolU/bwmPWSuZzPaAmdi7egGrmyKadB2AbqOmmxIzyn/9KhnDGhXVkent/RMatO3F2qb0bIB/wm+yupQo+EkJTNt4ijX9sf9XBPsOY3UpQdc7eGYwsmXLJm3Wod+9fYuI2//DlsXTcPWP33V4QsXGzh7zD9wQqqk+Tu31BR7dva7Yv7CLK6ZuOMF4d67+jR8GurH6f43I9j4ATeTDW1g7rL7ZtvTYFI4cOVN+lGrAhJWtPQatFR+Y5+FhWD9KfCkKA8jogKbjtBAUqVRPGC4irp5G7PNHrK6GeHjphFEQJQU0qb0/asZhrowc0Jy5dhzeK5VfNILu3VNPMlDx+s0rfDmxlsDiAEEJBI8WweXtf25gwIKujK9EtKzRDl5dfBlr07HVWLpnLqtLCQI1k3rMQq0y9bgXXnYpS48+c/0EvIOH6rUbarA0oMnJYfjLwSkfGXTOsPC36DAxwdDpP1h77jz5MHv3FTaBJCcmYGRzV9CkobZ85TkLDTt+w8R3Bc3BrhVzWD2thBzQDK7/sdkqFx2+j49y5mT9wv48ymi1xKGNAbh86hATt3fMD7+tf+uBmaSEeLx89g9iIp8hIT6WyZesWAO29ikfjdSYHoCm01AffNlzCBtD7MsXuH/9MqurIWIinyJoqu5v6X0BGhpPyUo1MWj6cjgWdDI5PLonm3+erCfnXLIcfNYcZu2vX73CjfMiqGIME0TQFA/ERD1XlJIDmrOhO7B80iBF2f9C43sBNIaAhSmDfht8EbaOhXgxNYAmb5FS6LXoOFN77/xh7Jjag9UFwhxAIwUXasZA50irh6bJ0Lmo0Ez0Iuz/yR03jm8Xhm+RoxTQpPb+WGQgMiVyQHPtwVV4+Iu2kInz1X3T/oDVRynANyouEp2miyDWmgPEe33/YN3UAJqejfpjQIvhrM/CnT9g68n1rK5EkJemWXU31ChVFxWKVkEBh5TnVi4bsHce561ZJW9WrFsa0NBJCNAQsKESE/8ONd3jUyoZ6P9vJy9G7S87sRGRZ4Y8NOaURp2/RY8xfqyLsS9wJmQGIQU07969g0cD0xOdXP3sXZdhn7cAax7euBheJSexemoI+aRO+lZNH4G/Dim/PzyXbEepKnXYqdID0HzWqhv6TvyZnZOA3IJR3Vg9tYT82o15aOTgQu3zQYChUZdvOZvVRuGipWBlk0txuD+6t8Hty3/p8HJ8lBP+R+6ztviYlxjTsiyrW4KQA5o/9m1G8DTxXWaJc2QmHRkK0HSbcwCFXKsw+y3tXhyvkw27yItWb4x2PuLEc3FPEI4uH8/6C4QU0BgKSwmyvRefhKNTSb6aXoCmSuv++GLADGEIOLHKF+e2LWZ1SxDvA9DYcTNlpfx59Yb3lnvh//n4mV67UoMc0DyOeoSvfmilJMrapCGq2/9c5zwwui/HgzPOIkf2HLz8i5hn6OLXjPVVIkZ3mIi2dbow1tgV7jh7UwRFjGGEyG1jjw6fdUfvJgMZ2CLxuMRYtJ3awEhPkfU+AM3mKblQxVX0JNXiAE00B2wySqEwyYLfbrGQ8JvXrzCymSsoxGBOKVq2CsYHHWBdaHKhScZSxRKAhsZH4xSK79eN+LCFUE/N8ac9YbDLk/IbJKDl16857t8w7P3wCzmLfIWLsFOlB6Ap4FwM0zeLv6eHN69iWt8mbAypJeSAhnSSbqVSo0lbDJy2nLHUAhrW4V/CqXgZdBk+hQ+PSkNShkI9C38PZ94z8tAMa+QiV5mmugZodM2XoQBNS89lKFW/HRvh1okd8fDKKVaXE7W6jkadnt+z5mOBE3FhdyCrC4R0MjcVbhm09jqsbB34rmoBjXPFupyXYJtwOhwNnICLu1ewuinCqXwddPYTv6jCQjfi0MKRprqZxZfawFIemv4VS2New9qK43BYvFaxXd4oBzQUQmrpUwdvDYQbihYsgZVjxJDSybDDmLh6lI7akAmhcMydj2+je9hiUh2QXkNlkcdq3ssi8LvPaoGnLx8LVbOO+e0LYK3Xbh1Q03xCDbx5+8akHimgiU+KQ5sp9U32EQSUcmiIN6KTFYZ2FMMcI35Owv4/XwvdPviRcisox0Iop/Zu4j0MQl3tMTsHYBcfe8jEE7kwy6jmpVg9rYQlAE0/n0Wo00IEzmtmjsGJXevSNLQlxyKQLXsKYI1+/gRe7UTApKR40eF7XNjLirHUAJoq9b/EkB9Xsz67g+diZ+CPrK6GWHL8EQspxr2MxHdu5dV0MyrTfpA3WvUVf/sBEwbg3OFdin3afOuJNv09GS+1gEZQUKt5R/SfskSo8qG9sW0qsbpAyAHk6BZlkBAbLbDTfMxMgMbJ2RlDhg1H9n+fV+HiD+zbhyOHlfOQBBm1xwwFaOp85YVa3cawsYf/HYqd0wyHH/qtOA+7fGIsm8JNFHaSF0ocpgRiKsYSlvMXK4+v5ouGVQtoHAoXRZ+lZ9hpz+8IwPHgyaxuirDKlRuD1onJbJQQHdinAj9WU33V8jMLoKHrmb7BG6EX9ile2nedfNC6VifGo3AOhXWkZemwdShTpAJrWrDdD9tPb2J1KeHAJRFvkyQRE6/JuGpSEbPpWd8sQu2yolem84ymiIxVjoFLlc8duBzVSqbkA9Gz13T8p1K2UdoQoKlYPDtCpuVifTf9/hqTgtIW5mDK0kjQRPzzoTvsC5ZyZmiiI9d8asqC327DOpct6xrCha0OmJFYzDoqEJYANI069+PCYjOZ9pfPH+P7dlVZPTWEFCg8iwjHxK5iOEmur+XXw9Fh8ASdZjWAhrwSk9ceZf3OHNiil8/CmAaIufu4hGhJ7k6gj7vBsJgBFXrN8lAW5UxR7pRSmbL2GD4uXpqx0gpoSBE9u0IIivK+RjQtwfQLxMj5m1C+lrho4WzoTi7HZaDATvMxMwGaFi1bYaz3OL1r3r9vL2bPEn8XegJmNGQoQGOX3wn9As+x4dNLfbV7LcQ8Fb+8BKY83JScEIvlvctyiYT6X8KdZ+6EUzkxcdSQ56eD76/4pLI4EakFNNm4r8OhW8QxRj68ySVFi3qEMRs7thwbiFL1RBf59aMhODBviLEuPI/CY3mcSyD87CGjspkJ0Nx7egf95nUCudClxdbaDlsmHGIrnIin5E1pXr0NxnWbzro+i36Cnj+6cV6a16xNIOThJgo1UchJqZR2Lo8bEWFKLJ22Dd77UCiPCLTVemjkYG3M8gE4f/svHd2GKoYADcn/vdwWdjbZ+K5Rse9QxyPekJp0baeva/rKFsqlk7/Bf2xvoWr2kb7A6UtcKDTJUF6FsVU8ZT+tj2LlqpoEPpYANATg5nETO61+Ecr6Od44snWlUDV4rN6oDZ/kK8/ToFU0gj4K133nVgGJcTF6enLldsAP2y+wCVgQUANo5N6vqKeP4N2huqBC1bFpd3d0HTGVyVJisHf7aiZDi5T0XNetu+KKt+IVqsN7+V6mM/JJBMZ11P8IkIcjqYMhQEO2LMStiLp37SLTq0TIE9npejw528sLAY4p648z7xS903x61MPTB3fkojp1yr8hzyV58IwBfA3Q6JgNGQrQ0NDkE/vrpARs9PwSkQ9usJGXqN0Cbt60rC7F1UqMY0E+uLBzGZOREp/1Ho8anUewpsSYSGz+3g0vH6U8VLSku4VnAFzrtmYyRKgFNCRLHhbytAjl6qH1OMnlwtC51BQKc/VfdQX0IAvl6e1L2O3XR3/FE7ecsMznHVGzyyjkcynDAb4HWDWoptBN8ZiZAA1dwMU7ZzEmcCALPdHqIgrJSJNv/7pxCl5BHorXGzLxdzja5WU8Akkei3ohIVmczD1af4euDb5mMkT0+ak9HjwL12mjysd5nbHOaw9oOTV5ezZxnqHYRN2JgxKVCZQ0ry4+R3Teb+Z21NOn1NCpXk8Ma+vFWJR/M2399/jr5ilmB8aUEcYAzdgeVhjQWnyuOvsk4PId9SuIZKeyWFU6GZNSNZOrqZPP2XMVNNkIhSb5VTNG4syBEKGJP1LuzgDfANAS3Qc3r2B636Y6fHnFEoCGdFZv2Brufit01F85HYqACf1BAExaCIS0HeCFeq17wMY2Ny6dOAh/L93nddKqUBQpJU6ktJR4tkc7nbAGJQGPmLdBD8zQudTaXJoLQv1oLL/84AnyMqktM7nVWHkLOTNxWokVNHUILhzT98bSEv4O3DJ8WipPuSpKq8oodLYw9C4LuZHik7s3YLWfGIaq9FlTfsm59L1KcoYADXmwyJNF13X41yAe6NIzJC0FnIpibMBO5MlfmDX/9ds2BE4ezOpSQp70Tp5IWva+Y/kPUjGeJoDSeZgPaNw0L9Gze2rPRj05oUEDNIIlUo4ZDtDIvTTCcBOin/OeGkfnkjrAgfjGvDPEp+XdA3+5pgOACKzEv3jMTRRvkLuAsw6P+lAxB9AQuKjbS/zaTNGQouOt5AdxLGgyLu9bKbB1jlXbDMTn/afptFElKfYlB2oikIN7Ceeyz8/26hEEsyKgoWujvBPKZcmZIyfycdctBbDE7zevI8KfKH/pyL00JE/38zG3XwvlpxQtWBwfcXqlxZh3xjm/C37x3CkV5xN+KYn5GTdGytlxdSrLkpEFQb+N4/Hb+T1C1eiRANF2nyM6HiihA+UAveXGTyWG2+ep68zmAos/GgM0jrmz4Y8ltkx+9+nXGOP/YcNO9dv0xNfj5rIxWSqJl9z75OaXF5qUaAkzTRLWuex0QlPpCWhoXFJwJIyTvtwT4qLxKikRb9+84VdDSXNdSE4J0NDEN2zOWkENf6SQ9VMu/GRtY8t7bwgMGSpqAU330TPQuEt/PTU0bjqfUPasnI/dwT8JVZ1jiQqf4vvl+r8FSpalZdnZc+Tgwo82yMV5SYS8IEGBEqAhHu2PQ6BUWkhf7MvnsHPIy8KZUj7RhgCNfIk5XV9SQhwPcBJiYzgQU0gHlJEukpna63ODe+DQfaSQmxCeoj5UyG5x0VGgZ5MAF4Xk5MArKwGalm6t4en1fcrFS/7PsiEn4Rpdqn6BNhPWsD1phHalY3zUE4SM74CoR7eV2KytkfssVGr5DasrEbQ5HYWszN1Yj3RR2OlrboWUQ+FiSqpZ28nV0/D3Vn9WlxNlG3ZBk2Hz9B5suZy0npUAzc1H11Cc21xODjak10vAxJfzXBy5dFDarEfLl2PrCUgazt06g/GrRiDpVaKkVSSVAI3IVaa2nFgL/12zlZkGWptVc8P47uLyYyUxGmMrn7o6LGOAhgR/mWCDWuVSVn4lcR+c1QfGgZs3P1j5ccdFOHCTg1BmfNPM6OocQU7Nkb7u3WcE8sBFjXx6AxoK4Xw72R81m3VQMzwmowRoiDnYLwjVGroxOUMErRy7dfEMytYQw+FqAQ2Nedb283DIV9CQer794Pol2LJIDC3JhUtVrcMnGJu7waAhQEMrtmgFlbBxqvx8VCfAsY7bZLGXl/hbVAtolPTJ22iZNC2XNlbIm0NesiKu5Y2J6fGyEqAZOnwEOnbuoneNq1cGg/5ZoljMQzNgdRhs7FNc/JZYRZPLIT/aTd6AgiUrK14nTWq3Tu3BgbkeHNLVdQkqduAaDXlRSP4BtzHdjqnd0XbSWgZoCDkv6epiSJ1+O+ca/bTDEBAoIU9Sdg51y70KR5Z549Lelfp9JS1kx1ZeK0Crp+T9JWKIfRaBGye248r+NSYBnaXvD42jT3lXLGqsO7EK40vtKqfDFw9g47GVmNN/GZf3of9lSSEfz0Bunx4VuSw0lnIuleDXd6FO+EkYIx3JC0RJxb8e/0XarEfTzsS0mzBtqEfhJ2OFwkwLd8wye+m3oLN4YVd808yDSxCuydnAXs/ro7QU3BSgKeOSHTv9cgmnwLzNyVi6Q93vhnWyEFG5XjMMnS3a+5+7NzCF+8K1ZKGv4kEcqKn8WTO9r33hPOT6D/vzCL8pmqGdWAXZsUt2wJXbi4QKTZCp2YdG0CUcaXJ3n7FCZ28agSc9Pn90n0+gpQ3col88lbIYTWESCk/Jv/AFAVrOPH9kV3TwmADyjgmF8j4o/0NNIa9JpyGTUKNxW+QpUJgHEdKly6TDWGKucA4e0E1ZzOuRe2IEGTrSnjo3L5zG4S3BimEpQZbCLrRTsp2Do9DEjvQOX+03GrevnNXZKfjotlUcyNH3FlA+Vedhk/m8KvLkGSt3w87z4S0K86ktTbsP4hOzje3qTM8lgWwKNR3ldrw2toUBbfw3a5uYd5qR96EJWrUGRYvpfvAnJyejTcsvTYbU1drXYoBG7QnNlaMfaKFS1fik3o+sbZEQ/QwRYWdAoIl7s5irDja5HeFUoQ4Kl/4Ub7gvluS4l7jz535EP7lvtq706JDHqQQ+5saa16U07z1KiH6BqIjbeHbnMuKjlF9u6TEuS51DvmybAI3vei9ePeXL1K/QCPTnDJ5yoSLKmXnO7SuTmkLgqGKxaqjIbYKX9CoJT7hQ0aW757gQ1COz1RG4qVy8OshrU9jRCcmvk/CKe3He4/7kwe3HNxHxPP2fJVOAhi5y8SgbNK2R4qVJSOYA/qA4LlHa7MtPcwffDSdRyKUk00ObrKVm11ymwARBOQ/luFAU7ZJrzYVfHt29hgc3ruDqmcN6eSsmVL0XNr3jXCvXROlq9XgPSE5rGzy5f4sb5w1c+/uEYpKv0kBoAqaQWwnuOgsXdUU8F854+vAun1diTq6Lku731UYeFkrMLlm5Fh9qS06M50M3lJRrbD8d+XgIGLlWqoXytRtyADE/zw4Pu4CTezaYteO0VG9+JxeUq/E56M8m0DjjY6L43KSHt8Jw69IZs//0hVQ35UfRdRNIppV5BJIf37sF0n393MlUj1l6joxG7z/0O3JwYUVpsaR3hvRmeEAjvXiNznoWMAZost7Vvr8rUgNo8tlnwwl/W2RPWfCEn0OS4b81fb008jwKQytT3p+lNM2aBTQLpLcFKlSsiJ/9l+icNjExEW3dWloUvGmARsfEWiW9LaABGstYXA2goTON7GyF/v+ueLp69w16+CrnDFlmVPpaxi7dyXkjxC0U6A8EUj6DVjQLaBbIuhYYOXoM2rbXzRkLXBaADet0E9rTagEN0KTVglr/NFlAAzRpMh/rrBbQsA4fiCD3/SelKvJnp1UeSkt2P9DQtNNqFtAs8J4ssHLNWnziIuajxsfFoV3rVhY/mwZoLG5STaE5FtAAjTnWMiybWQCN4SvQOJoFNAtkVQscDD2sk5y/aMF8bNuquzeUJa5dAzSWsKKmI9UW0ABNqk2n01EDNDrm0CqaBTQLZBALWFlZYckybhsFa2tuVelbREa+wKhhQ9/L6DRA817MqilVawE5oDl4bhdmbpqotrsm968FNECjPQqaBTQL/NctoAGa//oT8IGvnwANLYEW9tu5GfE/fiffDzysTHd6DdBkulumDVizgGYBC1tAAzQWNqimzjwLEKDRStotoAGatNtQ06BZQLNA5raABmgy9/3L9KPXAI1lbqEGaCxjR02LZgHNApnXAhqgybz3LkuMXAM0lrmNGqCxjB01LZoFNAtkXgtogCbz3rssMXIN0FjmNmqAxjJ21LRoFtAskHktoAGazHvvssTINUBjmduoARrL2FHTollAs0DmtYAGaDLvvcsSI9cAjWVuowZoLGNHTYtmAc0CmdcC/wdlvJ73PJTA1wAAAABJRU5ErkJggg==;" vertex="1" parent="1">
                    <mxGeometry x="450" y="160" width="225.6" height="20" as="geometry"/>
                </mxCell>
            </root>
        </mxGraphModel>
    </diagram>
</mxfile>